ISO-10303-21;
HEADER;
FILE_DESCRIPTION((''),'1');
FILE_NAME('outfile.stp','2026-03-22T00:35:05',(''),(''),'','','');
FILE_SCHEMA(('CONFIG_CONTROL_DESIGN'));
ENDSEC;
DATA;
#1=CALENDAR_DATE(2000,1,1);
#2=COORDINATED_UNIVERSAL_TIME_OFFSET(0,0,.BEHIND.);
#3=LOCAL_TIME(12,0,0.,#2);
#4=DATE_AND_TIME(#1,#3);
#5=DIMENSIONAL_EXPONENTS(0.,0.,0.,0.,0.,0.,0.);
#6=(
LENGTH_UNIT()
NAMED_UNIT(*)
SI_UNIT(.MILLI.,.METRE.)
);
#7=LENGTH_MEASURE_WITH_UNIT(LENGTH_MEASURE(304.8),#6);
#8=DIMENSIONAL_EXPONENTS(1.,0.,0.,0.,0.,0.,0.);
#9=(
CONVERSION_BASED_UNIT('FOOT',#7)
LENGTH_UNIT()
NAMED_UNIT(#8)
);
#10=UNCERTAINTY_MEASURE_WITH_UNIT(LENGTH_MEASURE(1.E-06),#9,'closure','Threshold below which geometry imperfections (such as overlaps) are not considered errors.');
#11=(
NAMED_UNIT(*)
PLANE_ANGLE_UNIT()
SI_UNIT($,.RADIAN.)
);
#12=PLANE_ANGLE_MEASURE_WITH_UNIT(PLANE_ANGLE_MEASURE(0.0174532925199433),#11);
#13=(
CONVERSION_BASED_UNIT('DEGREES',#12)
NAMED_UNIT(#5)
PLANE_ANGLE_UNIT()
);
#14=(
NAMED_UNIT(*)
SI_UNIT($,.STERADIAN.)
SOLID_ANGLE_UNIT()
);
#15=(
GEOMETRIC_REPRESENTATION_CONTEXT(3)
GLOBAL_UNCERTAINTY_ASSIGNED_CONTEXT((#10))
GLOBAL_UNIT_ASSIGNED_CONTEXT((#9,#13,#14))
REPRESENTATION_CONTEXT('STANDARD','3D')
);
#16=CARTESIAN_POINT('',(0.,0.,0.));
#17=DIRECTION('',(0.,0.,1.));
#18=DIRECTION('',(1.,0.,0.));
#19=AXIS2_PLACEMENT_3D('',#16,#17,#18);
#20=APPLICATION_CONTEXT('configuration controlled 3d designs of mechanical parts and assemblies');
#21=MECHANICAL_CONTEXT('',#20,'mechanical');
#22=APPLICATION_PROTOCOL_DEFINITION('international standard','config_control_design',1994,#20);
#23=DESIGN_CONTEXT('',#20,'design');
#24=PRODUCT('','prodname','',(#21));
#25=PRODUCT_RELATED_PRODUCT_CATEGORY('assembly','',(#24));
#26=PRODUCT_DEFINITION_FORMATION_WITH_SPECIFIED_SOURCE('','',#24,.MADE.);
#27=PRODUCT_DEFINITION('','',#26,#23);
#28=PRODUCT_DEFINITION_SHAPE('','ProductShapeDescription',#27);
#29=SHAPE_REPRESENTATION('',(#19),#15);
#30=SHAPE_DEFINITION_REPRESENTATION(#28,#29);
#31=PERSON('','Doe','John',$,$,$);
#32=ORGANIZATION('','','');
#33=PERSON_AND_ORGANIZATION(#31,#32);
#34=PERSON_AND_ORGANIZATION_ROLE('creator');
#35=PERSON_AND_ORGANIZATION_ROLE('design_owner');
#36=PERSON_AND_ORGANIZATION_ROLE('design_supplier');
#37=APPROVAL_STATUS('approved');
#38=APPROVAL(#37,'');
#39=APPROVAL_DATE_TIME(#4,#38);
#40=APPROVAL_ROLE('approver');
#41=APPROVAL_PERSON_ORGANIZATION(#33,#38,#40);
#42=SECURITY_CLASSIFICATION_LEVEL('unclassified');
#43=SECURITY_CLASSIFICATION('','',#42);
#44=CC_DESIGN_SECURITY_CLASSIFICATION(#43,(#26));
#45=PERSON_AND_ORGANIZATION_ROLE('classification_officer');
#46=CC_DESIGN_PERSON_AND_ORGANIZATION_ASSIGNMENT(#33,#45,(#43));
#47=DATE_TIME_ROLE('classification_date');
#48=CC_DESIGN_DATE_AND_TIME_ASSIGNMENT(#4,#47,(#43));
#49=CC_DESIGN_APPROVAL(#38,(#27,#26,#43));
#50=CC_DESIGN_PERSON_AND_ORGANIZATION_ASSIGNMENT(#33,#34,(#27,#26));
#51=CC_DESIGN_PERSON_AND_ORGANIZATION_ASSIGNMENT(#33,#36,(#26));
#52=DATE_TIME_ROLE('creation_date');
#53=CC_DESIGN_DATE_AND_TIME_ASSIGNMENT(#4,#52,(#27));
#54=CC_DESIGN_PERSON_AND_ORGANIZATION_ASSIGNMENT(#33,#35,(#24));
#55=B_SPLINE_SURFACE_WITH_KNOTS('Surf_COMUQQRKFE, Body, 0, 0',3,3,((#56, #57, #58, #65, #66, #67, #68),(#59, #60, #61, #69, #70, #71, #72),(#62, #63, #64, #73, #74, #75, #76),(#77, #78, #79, #89, #90, #91, #92),(#80, #81, #82, #93, #94, #95, #96),(#83, #84, #85, #97, #98, #99, #100),(#86, #87, #88, #101, #102, #103, #104)),.UNSPECIFIED.,.F.,.F.,.F.,(4,3,4),(4,3,4),(0.,1.,2.),(0.,1.,2.),.PIECEWISE_BEZIER_KNOTS.);
#56=CARTESIAN_POINT('',(0.,0.,-0.07));
#57=CARTESIAN_POINT('',(0.,0.0193170258572729,-0.07));
#58=CARTESIAN_POINT('',(0.,0.0368170258572729,-0.0621585129286364));
#59=CARTESIAN_POINT('',(0.0110485434560398,-4.19872694191779E-18,-0.0810485434560398));
#60=CARTESIAN_POINT('',(0.0110485434560398,0.0222029482206958,-0.0810485434560398));
#61=CARTESIAN_POINT('',(0.0110485434560398,0.0425888705841186,-0.0720116682017907));
#62=CARTESIAN_POINT('',(0.0416666666666667,0.,-0.07));
#63=CARTESIAN_POINT('',(0.0416666666666667,0.0193170258572729,-0.07));
#64=CARTESIAN_POINT('',(0.0416666666666667,0.0368170258572729,-0.0621585129286364));
#65=CARTESIAN_POINT('',(0.,0.0494877693929547,-0.0494877693929547));
#66=CARTESIAN_POINT('',(0.,0.0621585129286364,-0.0368170258572729));
#67=CARTESIAN_POINT('',(0.,0.07,-0.0193170258572729));
#68=CARTESIAN_POINT('',(0.,0.07,0.));
#69=CARTESIAN_POINT('',(0.0110485434560398,0.0573002693929547,-0.0573002693929547));
#70=CARTESIAN_POINT('',(0.0110485434560398,0.0720116682017907,-0.0425888705841186));
#71=CARTESIAN_POINT('',(0.0110485434560398,0.0810485434560398,-0.0222029482206958));
#72=CARTESIAN_POINT('',(0.0110485434560398,0.0810485434560398,-5.78241158658936E-19));
#73=CARTESIAN_POINT('',(0.0416666666666667,0.0494877693929547,-0.0494877693929547));
#74=CARTESIAN_POINT('',(0.0416666666666667,0.0621585129286364,-0.0368170258572729));
#75=CARTESIAN_POINT('',(0.0416666666666667,0.07,-0.0193170258572729));
#76=CARTESIAN_POINT('',(0.0416666666666667,0.07,0.));
#77=CARTESIAN_POINT('',(0.0625,0.,-0.07));
#78=CARTESIAN_POINT('',(0.0625,0.0193170258572729,-0.07));
#79=CARTESIAN_POINT('',(0.0625,0.0368170258572729,-0.0621585129286364));
#80=CARTESIAN_POINT('',(0.0833333333333333,0.,-0.07));
#81=CARTESIAN_POINT('',(0.0833333333333333,0.0193170258572729,-0.07));
#82=CARTESIAN_POINT('',(0.0833333333333333,0.0368170258572729,-0.0621585129286364));
#83=CARTESIAN_POINT('',(0.104166666666667,0.,-0.07));
#84=CARTESIAN_POINT('',(0.104166666666667,0.0193170258572729,-0.07));
#85=CARTESIAN_POINT('',(0.104166666666667,0.0368170258572729,-0.0621585129286364));
#86=CARTESIAN_POINT('',(0.125,0.,-0.07));
#87=CARTESIAN_POINT('',(0.125,0.0193170258572729,-0.07));
#88=CARTESIAN_POINT('',(0.125,0.0368170258572729,-0.0621585129286364));
#89=CARTESIAN_POINT('',(0.0625,0.0494877693929547,-0.0494877693929547));
#90=CARTESIAN_POINT('',(0.0625,0.0621585129286364,-0.0368170258572729));
#91=CARTESIAN_POINT('',(0.0625,0.07,-0.0193170258572729));
#92=CARTESIAN_POINT('',(0.0625,0.07,0.));
#93=CARTESIAN_POINT('',(0.0833333333333333,0.0494877693929547,-0.0494877693929547));
#94=CARTESIAN_POINT('',(0.0833333333333333,0.0621585129286364,-0.0368170258572729));
#95=CARTESIAN_POINT('',(0.0833333333333333,0.07,-0.0193170258572729));
#96=CARTESIAN_POINT('',(0.0833333333333333,0.07,0.));
#97=CARTESIAN_POINT('',(0.104166666666667,0.0494877693929547,-0.0494877693929547));
#98=CARTESIAN_POINT('',(0.104166666666667,0.0621585129286364,-0.0368170258572729));
#99=CARTESIAN_POINT('',(0.104166666666667,0.07,-0.0193170258572729));
#100=CARTESIAN_POINT('',(0.104166666666667,0.07,0.));
#101=CARTESIAN_POINT('',(0.125,0.0494877693929547,-0.0494877693929547));
#102=CARTESIAN_POINT('',(0.125,0.0621585129286364,-0.0368170258572729));
#103=CARTESIAN_POINT('',(0.125,0.07,-0.0193170258572729));
#104=CARTESIAN_POINT('',(0.125,0.07,0.));
#105=B_SPLINE_SURFACE_WITH_KNOTS('Surf_COMUQQRKFE, Body, 0, 1',3,3,((#106, #107, #108, #115, #116, #117, #118),(#109, #110, #111, #119, #120, #121, #122),(#112, #113, #114, #123, #124, #125, #126),(#127, #128, #129, #139, #140, #141, #142),(#130, #131, #132, #143, #144, #145, #146),(#133, #134, #135, #147, #148, #149, #150),(#136, #137, #138, #151, #152, #153, #154)),.UNSPECIFIED.,.F.,.F.,.F.,(4,3,4),(4,3,4),(0.,1.,2.),(0.,1.,2.),.PIECEWISE_BEZIER_KNOTS.);
#106=CARTESIAN_POINT('',(0.,-0.07,-3.20988324064539E-35));
#107=CARTESIAN_POINT('',(0.,-0.07,-0.0193170258572729));
#108=CARTESIAN_POINT('',(0.,-0.0621585129286364,-0.0368170258572729));
#109=CARTESIAN_POINT('',(0.0110485434560398,-0.0810485434560398,1.76442027152289E-19));
#110=CARTESIAN_POINT('',(0.0110485434560398,-0.0810485434560398,-0.0222029482206958));
#111=CARTESIAN_POINT('',(0.0110485434560398,-0.0720116682017907,-0.0425888705841187));
#112=CARTESIAN_POINT('',(0.0416666666666667,-0.07,0.));
#113=CARTESIAN_POINT('',(0.0416666666666667,-0.07,-0.0193170258572729));
#114=CARTESIAN_POINT('',(0.0416666666666667,-0.0621585129286364,-0.0368170258572729));
#115=CARTESIAN_POINT('',(0.,-0.0494877693929547,-0.0494877693929547));
#116=CARTESIAN_POINT('',(0.,-0.0368170258572729,-0.0621585129286364));
#117=CARTESIAN_POINT('',(0.,-0.0193170258572729,-0.07));
#118=CARTESIAN_POINT('',(0.,0.,-0.07));
#119=CARTESIAN_POINT('',(0.0110485434560398,-0.0573002693929547,-0.0573002693929547));
#120=CARTESIAN_POINT('',(0.0110485434560398,-0.0425888705841187,-0.0720116682017907));
#121=CARTESIAN_POINT('',(0.0110485434560398,-0.0222029482206958,-0.0810485434560398));
#122=CARTESIAN_POINT('',(0.0110485434560398,-4.19872694191779E-18,-0.0810485434560398));
#123=CARTESIAN_POINT('',(0.0416666666666667,-0.0494877693929547,-0.0494877693929547));
#124=CARTESIAN_POINT('',(0.0416666666666667,-0.0368170258572729,-0.0621585129286364));
#125=CARTESIAN_POINT('',(0.0416666666666667,-0.0193170258572729,-0.07));
#126=CARTESIAN_POINT('',(0.0416666666666667,0.,-0.07));
#127=CARTESIAN_POINT('',(0.0625,-0.07,0.));
#128=CARTESIAN_POINT('',(0.0625,-0.07,-0.0193170258572729));
#129=CARTESIAN_POINT('',(0.0625,-0.0621585129286364,-0.0368170258572729));
#130=CARTESIAN_POINT('',(0.0833333333333333,-0.07,0.));
#131=CARTESIAN_POINT('',(0.0833333333333333,-0.07,-0.0193170258572729));
#132=CARTESIAN_POINT('',(0.0833333333333333,-0.0621585129286364,-0.0368170258572729));
#133=CARTESIAN_POINT('',(0.104166666666667,-0.07,0.));
#134=CARTESIAN_POINT('',(0.104166666666667,-0.07,-0.0193170258572729));
#135=CARTESIAN_POINT('',(0.104166666666667,-0.0621585129286364,-0.0368170258572729));
#136=CARTESIAN_POINT('',(0.125,-0.07,0.));
#137=CARTESIAN_POINT('',(0.125,-0.07,-0.0193170258572729));
#138=CARTESIAN_POINT('',(0.125,-0.0621585129286364,-0.0368170258572729));
#139=CARTESIAN_POINT('',(0.0625,-0.0494877693929547,-0.0494877693929547));
#140=CARTESIAN_POINT('',(0.0625,-0.0368170258572729,-0.0621585129286364));
#141=CARTESIAN_POINT('',(0.0625,-0.0193170258572729,-0.07));
#142=CARTESIAN_POINT('',(0.0625,0.,-0.07));
#143=CARTESIAN_POINT('',(0.0833333333333333,-0.0494877693929547,-0.0494877693929547));
#144=CARTESIAN_POINT('',(0.0833333333333333,-0.0368170258572729,-0.0621585129286364));
#145=CARTESIAN_POINT('',(0.0833333333333333,-0.0193170258572729,-0.07));
#146=CARTESIAN_POINT('',(0.0833333333333333,0.,-0.07));
#147=CARTESIAN_POINT('',(0.104166666666667,-0.0494877693929547,-0.0494877693929547));
#148=CARTESIAN_POINT('',(0.104166666666667,-0.0368170258572729,-0.0621585129286364));
#149=CARTESIAN_POINT('',(0.104166666666667,-0.0193170258572729,-0.07));
#150=CARTESIAN_POINT('',(0.104166666666667,0.,-0.07));
#151=CARTESIAN_POINT('',(0.125,-0.0494877693929547,-0.0494877693929547));
#152=CARTESIAN_POINT('',(0.125,-0.0368170258572729,-0.0621585129286364));
#153=CARTESIAN_POINT('',(0.125,-0.0193170258572729,-0.07));
#154=CARTESIAN_POINT('',(0.125,0.,-0.07));
#155=B_SPLINE_SURFACE_WITH_KNOTS('Surf_COMUQQRKFE, Body, 0, 2',3,3,((#156, #157, #158, #165, #166, #167, #168),(#159, #160, #161, #169, #170, #171, #172),(#162, #163, #164, #173, #174, #175, #176),(#177, #178, #179, #189, #190, #191, #192),(#180, #181, #182, #193, #194, #195, #196),(#183, #184, #185, #197, #198, #199, #200),(#186, #187, #188, #201, #202, #203, #204)),.UNSPECIFIED.,.F.,.F.,.F.,(4,3,4),(4,3,4),(0.,1.,2.),(0.,1.,2.),.PIECEWISE_BEZIER_KNOTS.);
#156=CARTESIAN_POINT('',(0.,0.,0.07));
#157=CARTESIAN_POINT('',(-2.31296463463574E-18,-0.0193170258572729,0.07));
#158=CARTESIAN_POINT('',(0.,-0.0368170258572729,0.0621585129286364));
#159=CARTESIAN_POINT('',(0.0110485434560398,-5.80411085057813E-18,0.0810485434560398));
#160=CARTESIAN_POINT('',(0.0110485434560398,-0.0222029482206958,0.0810485434560398));
#161=CARTESIAN_POINT('',(0.0110485434560398,-0.0425888705841187,0.0720116682017907));
#162=CARTESIAN_POINT('',(0.0416666666666667,0.,0.07));
#163=CARTESIAN_POINT('',(0.0416666666666667,-0.0193170258572729,0.07));
#164=CARTESIAN_POINT('',(0.0416666666666667,-0.0368170258572729,0.0621585129286364));
#165=CARTESIAN_POINT('',(0.,-0.0494877693929547,0.0494877693929547));
#166=CARTESIAN_POINT('',(0.,-0.0621585129286364,0.0368170258572729));
#167=CARTESIAN_POINT('',(-2.31296463463574E-18,-0.07,0.0193170258572729));
#168=CARTESIAN_POINT('',(0.,-0.07,-3.20988324064539E-35));
#169=CARTESIAN_POINT('',(0.0110485434560398,-0.0573002693929547,0.0573002693929547));
#170=CARTESIAN_POINT('',(0.0110485434560398,-0.0720116682017907,0.0425888705841186));
#171=CARTESIAN_POINT('',(0.0110485434560398,-0.0810485434560398,0.0222029482206958));
#172=CARTESIAN_POINT('',(0.0110485434560398,-0.0810485434560398,1.76442027152289E-19));
#173=CARTESIAN_POINT('',(0.0416666666666667,-0.0494877693929547,0.0494877693929547));
#174=CARTESIAN_POINT('',(0.0416666666666667,-0.0621585129286364,0.0368170258572729));
#175=CARTESIAN_POINT('',(0.0416666666666667,-0.07,0.0193170258572729));
#176=CARTESIAN_POINT('',(0.0416666666666667,-0.07,0.));
#177=CARTESIAN_POINT('',(0.0625,0.,0.07));
#178=CARTESIAN_POINT('',(0.0625,-0.0193170258572729,0.07));
#179=CARTESIAN_POINT('',(0.0625,-0.0368170258572729,0.0621585129286364));
#180=CARTESIAN_POINT('',(0.0833333333333333,0.,0.07));
#181=CARTESIAN_POINT('',(0.0833333333333333,-0.0193170258572729,0.07));
#182=CARTESIAN_POINT('',(0.0833333333333333,-0.0368170258572729,0.0621585129286364));
#183=CARTESIAN_POINT('',(0.104166666666667,0.,0.07));
#184=CARTESIAN_POINT('',(0.104166666666667,-0.0193170258572729,0.07));
#185=CARTESIAN_POINT('',(0.104166666666667,-0.0368170258572729,0.0621585129286364));
#186=CARTESIAN_POINT('',(0.125,0.,0.07));
#187=CARTESIAN_POINT('',(0.125,-0.0193170258572729,0.07));
#188=CARTESIAN_POINT('',(0.125,-0.0368170258572729,0.0621585129286364));
#189=CARTESIAN_POINT('',(0.0625,-0.0494877693929547,0.0494877693929547));
#190=CARTESIAN_POINT('',(0.0625,-0.0621585129286364,0.0368170258572729));
#191=CARTESIAN_POINT('',(0.0625,-0.07,0.0193170258572729));
#192=CARTESIAN_POINT('',(0.0625,-0.07,0.));
#193=CARTESIAN_POINT('',(0.0833333333333333,-0.0494877693929547,0.0494877693929547));
#194=CARTESIAN_POINT('',(0.0833333333333333,-0.0621585129286364,0.0368170258572729));
#195=CARTESIAN_POINT('',(0.0833333333333333,-0.07,0.0193170258572729));
#196=CARTESIAN_POINT('',(0.0833333333333333,-0.07,0.));
#197=CARTESIAN_POINT('',(0.104166666666667,-0.0494877693929547,0.0494877693929547));
#198=CARTESIAN_POINT('',(0.104166666666667,-0.0621585129286364,0.0368170258572729));
#199=CARTESIAN_POINT('',(0.104166666666667,-0.07,0.0193170258572729));
#200=CARTESIAN_POINT('',(0.104166666666667,-0.07,0.));
#201=CARTESIAN_POINT('',(0.125,-0.0494877693929547,0.0494877693929547));
#202=CARTESIAN_POINT('',(0.125,-0.0621585129286364,0.0368170258572729));
#203=CARTESIAN_POINT('',(0.125,-0.07,0.0193170258572729));
#204=CARTESIAN_POINT('',(0.125,-0.07,0.));
#205=B_SPLINE_SURFACE_WITH_KNOTS('Surf_COMUQQRKFE, Body, 0, 3',3,3,((#206, #207, #208, #215, #216, #217, #218),(#209, #210, #211, #219, #220, #221, #222),(#212, #213, #214, #223, #224, #225, #226),(#227, #228, #229, #239, #240, #241, #242),(#230, #231, #232, #243, #244, #245, #246),(#233, #234, #235, #247, #248, #249, #250),(#236, #237, #238, #251, #252, #253, #254)),.UNSPECIFIED.,.F.,.F.,.F.,(4,3,4),(4,3,4),(0.,1.,2.),(0.,1.,2.),.PIECEWISE_BEZIER_KNOTS.);
#206=CARTESIAN_POINT('',(0.,0.07,0.));
#207=CARTESIAN_POINT('',(0.,0.07,0.0193170258572729));
#208=CARTESIAN_POINT('',(0.,0.0621585129286364,0.0368170258572729));
#209=CARTESIAN_POINT('',(0.0110485434560398,0.0810485434560398,0.));
#210=CARTESIAN_POINT('',(0.0110485434560398,0.0810485434560398,0.0222029482206958));
#211=CARTESIAN_POINT('',(0.0110485434560398,0.0720116682017907,0.0425888705841186));
#212=CARTESIAN_POINT('',(0.0416666666666667,0.07,0.));
#213=CARTESIAN_POINT('',(0.0416666666666667,0.07,0.0193170258572729));
#214=CARTESIAN_POINT('',(0.0416666666666667,0.0621585129286364,0.0368170258572729));
#215=CARTESIAN_POINT('',(0.,0.0494877693929547,0.0494877693929547));
#216=CARTESIAN_POINT('',(0.,0.0368170258572729,0.0621585129286364));
#217=CARTESIAN_POINT('',(0.,0.0193170258572729,0.07));
#218=CARTESIAN_POINT('',(0.,0.,0.07));
#219=CARTESIAN_POINT('',(0.0110485434560398,0.0573002693929546,0.0573002693929547));
#220=CARTESIAN_POINT('',(0.0110485434560398,0.0425888705841186,0.0720116682017907));
#221=CARTESIAN_POINT('',(0.0110485434560398,0.0222029482206958,0.0810485434560398));
#222=CARTESIAN_POINT('',(0.0110485434560398,-5.80411085057813E-18,0.0810485434560398));
#223=CARTESIAN_POINT('',(0.0416666666666667,0.0494877693929547,0.0494877693929547));
#224=CARTESIAN_POINT('',(0.0416666666666667,0.0368170258572729,0.0621585129286364));
#225=CARTESIAN_POINT('',(0.0416666666666667,0.0193170258572729,0.07));
#226=CARTESIAN_POINT('',(0.0416666666666667,0.,0.07));
#227=CARTESIAN_POINT('',(0.0625,0.07,0.));
#228=CARTESIAN_POINT('',(0.0625,0.07,0.0193170258572729));
#229=CARTESIAN_POINT('',(0.0625,0.0621585129286364,0.0368170258572729));
#230=CARTESIAN_POINT('',(0.0833333333333333,0.07,0.));
#231=CARTESIAN_POINT('',(0.0833333333333333,0.07,0.0193170258572729));
#232=CARTESIAN_POINT('',(0.0833333333333333,0.0621585129286364,0.0368170258572729));
#233=CARTESIAN_POINT('',(0.104166666666667,0.07,0.));
#234=CARTESIAN_POINT('',(0.104166666666667,0.07,0.0193170258572729));
#235=CARTESIAN_POINT('',(0.104166666666667,0.0621585129286364,0.0368170258572729));
#236=CARTESIAN_POINT('',(0.125,0.07,0.));
#237=CARTESIAN_POINT('',(0.125,0.07,0.0193170258572729));
#238=CARTESIAN_POINT('',(0.125,0.0621585129286364,0.0368170258572729));
#239=CARTESIAN_POINT('',(0.0625,0.0494877693929547,0.0494877693929547));
#240=CARTESIAN_POINT('',(0.0625,0.0368170258572729,0.0621585129286364));
#241=CARTESIAN_POINT('',(0.0625,0.0193170258572729,0.07));
#242=CARTESIAN_POINT('',(0.0625,0.,0.07));
#243=CARTESIAN_POINT('',(0.0833333333333333,0.0494877693929547,0.0494877693929547));
#244=CARTESIAN_POINT('',(0.0833333333333333,0.0368170258572729,0.0621585129286364));
#245=CARTESIAN_POINT('',(0.0833333333333333,0.0193170258572729,0.07));
#246=CARTESIAN_POINT('',(0.0833333333333333,0.,0.07));
#247=CARTESIAN_POINT('',(0.104166666666667,0.0494877693929547,0.0494877693929547));
#248=CARTESIAN_POINT('',(0.104166666666667,0.0368170258572729,0.0621585129286364));
#249=CARTESIAN_POINT('',(0.104166666666667,0.0193170258572729,0.07));
#250=CARTESIAN_POINT('',(0.104166666666667,0.,0.07));
#251=CARTESIAN_POINT('',(0.125,0.0494877693929547,0.0494877693929547));
#252=CARTESIAN_POINT('',(0.125,0.0368170258572729,0.0621585129286364));
#253=CARTESIAN_POINT('',(0.125,0.0193170258572729,0.07));
#254=CARTESIAN_POINT('',(0.125,0.,0.07));
#255=B_SPLINE_SURFACE_WITH_KNOTS('Surf_COMUQQRKFE, Body, 0, 4',3,3,((#256, #257, #258, #265, #266, #267, #268),(#259, #260, #261, #269, #270, #271, #272),(#262, #263, #264, #273, #274, #275, #276),(#277, #278, #279, #289, #290, #291, #292),(#280, #281, #282, #293, #294, #295, #296),(#283, #284, #285, #297, #298, #299, #300),(#286, #287, #288, #301, #302, #303, #304)),.UNSPECIFIED.,.F.,.F.,.F.,(4,3,4),(4,3,4),(0.,1.,2.),(0.,1.,2.),.PIECEWISE_BEZIER_KNOTS.);
#256=CARTESIAN_POINT('',(0.125,0.,-0.07));
#257=CARTESIAN_POINT('',(0.125,0.0193170258572729,-0.07));
#258=CARTESIAN_POINT('',(0.125,0.0368170258572729,-0.0621585129286364));
#259=CARTESIAN_POINT('',(0.145833333333333,0.,-0.07));
#260=CARTESIAN_POINT('',(0.145833333333333,0.0193170258572729,-0.07));
#261=CARTESIAN_POINT('',(0.145833333333333,0.0368170258572729,-0.0621585129286364));
#262=CARTESIAN_POINT('',(0.166666666666667,0.,-0.07));
#263=CARTESIAN_POINT('',(0.166666666666667,0.0193170258572729,-0.07));
#264=CARTESIAN_POINT('',(0.166666666666667,0.0368170258572729,-0.0621585129286364));
#265=CARTESIAN_POINT('',(0.125,0.0494877693929547,-0.0494877693929547));
#266=CARTESIAN_POINT('',(0.125,0.0621585129286364,-0.0368170258572729));
#267=CARTESIAN_POINT('',(0.125,0.07,-0.0193170258572729));
#268=CARTESIAN_POINT('',(0.125,0.07,0.));
#269=CARTESIAN_POINT('',(0.145833333333333,0.0494877693929547,-0.0494877693929547));
#270=CARTESIAN_POINT('',(0.145833333333333,0.0621585129286364,-0.0368170258572729));
#271=CARTESIAN_POINT('',(0.145833333333333,0.07,-0.0193170258572729));
#272=CARTESIAN_POINT('',(0.145833333333333,0.07,0.));
#273=CARTESIAN_POINT('',(0.166666666666667,0.0494877693929547,-0.0494877693929547));
#274=CARTESIAN_POINT('',(0.166666666666667,0.0621585129286364,-0.0368170258572729));
#275=CARTESIAN_POINT('',(0.166666666666667,0.07,-0.0193170258572729));
#276=CARTESIAN_POINT('',(0.166666666666667,0.07,0.));
#277=CARTESIAN_POINT('',(0.1875,0.,-0.07));
#278=CARTESIAN_POINT('',(0.1875,0.0193170258572729,-0.07));
#279=CARTESIAN_POINT('',(0.1875,0.0368170258572729,-0.0621585129286364));
#280=CARTESIAN_POINT('',(0.208333333333333,0.,-0.07));
#281=CARTESIAN_POINT('',(0.208333333333333,0.0193170258572729,-0.07));
#282=CARTESIAN_POINT('',(0.208333333333333,0.0368170258572729,-0.0621585129286364));
#283=CARTESIAN_POINT('',(0.23895145654396,-4.19872694191779E-18,-0.0810485434560398));
#284=CARTESIAN_POINT('',(0.23895145654396,0.0222029482206958,-0.0810485434560398));
#285=CARTESIAN_POINT('',(0.23895145654396,0.0425888705841186,-0.0720116682017907));
#286=CARTESIAN_POINT('',(0.25,0.,-0.07));
#287=CARTESIAN_POINT('',(0.25,0.0193170258572729,-0.07));
#288=CARTESIAN_POINT('',(0.25,0.0368170258572729,-0.0621585129286364));
#289=CARTESIAN_POINT('',(0.1875,0.0494877693929547,-0.0494877693929547));
#290=CARTESIAN_POINT('',(0.1875,0.0621585129286364,-0.0368170258572729));
#291=CARTESIAN_POINT('',(0.1875,0.07,-0.0193170258572729));
#292=CARTESIAN_POINT('',(0.1875,0.07,0.));
#293=CARTESIAN_POINT('',(0.208333333333333,0.0494877693929547,-0.0494877693929547));
#294=CARTESIAN_POINT('',(0.208333333333333,0.0621585129286364,-0.0368170258572729));
#295=CARTESIAN_POINT('',(0.208333333333333,0.07,-0.0193170258572729));
#296=CARTESIAN_POINT('',(0.208333333333333,0.07,0.));
#297=CARTESIAN_POINT('',(0.23895145654396,0.0573002693929547,-0.0573002693929547));
#298=CARTESIAN_POINT('',(0.23895145654396,0.0720116682017907,-0.0425888705841186));
#299=CARTESIAN_POINT('',(0.23895145654396,0.0810485434560398,-0.0222029482206958));
#300=CARTESIAN_POINT('',(0.23895145654396,0.0810485434560398,-5.78241158658936E-19));
#301=CARTESIAN_POINT('',(0.25,0.0494877693929547,-0.0494877693929547));
#302=CARTESIAN_POINT('',(0.25,0.0621585129286364,-0.0368170258572729));
#303=CARTESIAN_POINT('',(0.25,0.07,-0.0193170258572729));
#304=CARTESIAN_POINT('',(0.25,0.07,0.));
#305=B_SPLINE_SURFACE_WITH_KNOTS('Surf_COMUQQRKFE, Body, 0, 5',3,3,((#306, #307, #308, #315, #316, #317, #318),(#309, #310, #311, #319, #320, #321, #322),(#312, #313, #314, #323, #324, #325, #326),(#327, #328, #329, #339, #340, #341, #342),(#330, #331, #332, #343, #344, #345, #346),(#333, #334, #335, #347, #348, #349, #350),(#336, #337, #338, #351, #352, #353, #354)),.UNSPECIFIED.,.F.,.F.,.F.,(4,3,4),(4,3,4),(0.,1.,2.),(0.,1.,2.),.PIECEWISE_BEZIER_KNOTS.);
#306=CARTESIAN_POINT('',(0.125,-0.07,0.));
#307=CARTESIAN_POINT('',(0.125,-0.07,-0.0193170258572729));
#308=CARTESIAN_POINT('',(0.125,-0.0621585129286364,-0.0368170258572729));
#309=CARTESIAN_POINT('',(0.145833333333333,-0.07,0.));
#310=CARTESIAN_POINT('',(0.145833333333333,-0.07,-0.0193170258572729));
#311=CARTESIAN_POINT('',(0.145833333333333,-0.0621585129286364,-0.0368170258572729));
#312=CARTESIAN_POINT('',(0.166666666666667,-0.07,0.));
#313=CARTESIAN_POINT('',(0.166666666666667,-0.07,-0.0193170258572729));
#314=CARTESIAN_POINT('',(0.166666666666667,-0.0621585129286364,-0.0368170258572729));
#315=CARTESIAN_POINT('',(0.125,-0.0494877693929547,-0.0494877693929547));
#316=CARTESIAN_POINT('',(0.125,-0.0368170258572729,-0.0621585129286364));
#317=CARTESIAN_POINT('',(0.125,-0.0193170258572729,-0.07));
#318=CARTESIAN_POINT('',(0.125,0.,-0.07));
#319=CARTESIAN_POINT('',(0.145833333333333,-0.0494877693929547,-0.0494877693929547));
#320=CARTESIAN_POINT('',(0.145833333333333,-0.0368170258572729,-0.0621585129286364));
#321=CARTESIAN_POINT('',(0.145833333333333,-0.0193170258572729,-0.07));
#322=CARTESIAN_POINT('',(0.145833333333333,0.,-0.07));
#323=CARTESIAN_POINT('',(0.166666666666667,-0.0494877693929547,-0.0494877693929547));
#324=CARTESIAN_POINT('',(0.166666666666667,-0.0368170258572729,-0.0621585129286364));
#325=CARTESIAN_POINT('',(0.166666666666667,-0.0193170258572729,-0.07));
#326=CARTESIAN_POINT('',(0.166666666666667,0.,-0.07));
#327=CARTESIAN_POINT('',(0.1875,-0.07,0.));
#328=CARTESIAN_POINT('',(0.1875,-0.07,-0.0193170258572729));
#329=CARTESIAN_POINT('',(0.1875,-0.0621585129286364,-0.0368170258572729));
#330=CARTESIAN_POINT('',(0.208333333333333,-0.07,0.));
#331=CARTESIAN_POINT('',(0.208333333333333,-0.07,-0.0193170258572729));
#332=CARTESIAN_POINT('',(0.208333333333333,-0.0621585129286364,-0.0368170258572729));
#333=CARTESIAN_POINT('',(0.23895145654396,-0.0810485434560398,1.76442027152289E-19));
#334=CARTESIAN_POINT('',(0.23895145654396,-0.0810485434560398,-0.0222029482206958));
#335=CARTESIAN_POINT('',(0.23895145654396,-0.0720116682017907,-0.0425888705841187));
#336=CARTESIAN_POINT('',(0.25,-0.07,0.));
#337=CARTESIAN_POINT('',(0.25,-0.07,-0.0193170258572729));
#338=CARTESIAN_POINT('',(0.25,-0.0621585129286364,-0.0368170258572729));
#339=CARTESIAN_POINT('',(0.1875,-0.0494877693929547,-0.0494877693929547));
#340=CARTESIAN_POINT('',(0.1875,-0.0368170258572729,-0.0621585129286364));
#341=CARTESIAN_POINT('',(0.1875,-0.0193170258572729,-0.07));
#342=CARTESIAN_POINT('',(0.1875,0.,-0.07));
#343=CARTESIAN_POINT('',(0.208333333333333,-0.0494877693929547,-0.0494877693929547));
#344=CARTESIAN_POINT('',(0.208333333333333,-0.0368170258572729,-0.0621585129286364));
#345=CARTESIAN_POINT('',(0.208333333333333,-0.0193170258572729,-0.07));
#346=CARTESIAN_POINT('',(0.208333333333333,0.,-0.07));
#347=CARTESIAN_POINT('',(0.23895145654396,-0.0573002693929547,-0.0573002693929547));
#348=CARTESIAN_POINT('',(0.23895145654396,-0.0425888705841187,-0.0720116682017907));
#349=CARTESIAN_POINT('',(0.23895145654396,-0.0222029482206958,-0.0810485434560398));
#350=CARTESIAN_POINT('',(0.23895145654396,-4.19872694191779E-18,-0.0810485434560398));
#351=CARTESIAN_POINT('',(0.25,-0.0494877693929547,-0.0494877693929547));
#352=CARTESIAN_POINT('',(0.25,-0.0368170258572729,-0.0621585129286364));
#353=CARTESIAN_POINT('',(0.25,-0.0193170258572729,-0.07));
#354=CARTESIAN_POINT('',(0.25,0.,-0.07));
#355=B_SPLINE_SURFACE_WITH_KNOTS('Surf_COMUQQRKFE, Body, 0, 6',3,3,((#356, #357, #358, #365, #366, #367, #368),(#359, #360, #361, #369, #370, #371, #372),(#362, #363, #364, #373, #374, #375, #376),(#377, #378, #379, #389, #390, #391, #392),(#380, #381, #382, #393, #394, #395, #396),(#383, #384, #385, #397, #398, #399, #400),(#386, #387, #388, #401, #402, #403, #404)),.UNSPECIFIED.,.F.,.F.,.F.,(4,3,4),(4,3,4),(0.,1.,2.),(0.,1.,2.),.PIECEWISE_BEZIER_KNOTS.);
#356=CARTESIAN_POINT('',(0.125,0.,0.07));
#357=CARTESIAN_POINT('',(0.125,-0.0193170258572729,0.07));
#358=CARTESIAN_POINT('',(0.125,-0.0368170258572729,0.0621585129286364));
#359=CARTESIAN_POINT('',(0.145833333333333,0.,0.07));
#360=CARTESIAN_POINT('',(0.145833333333333,-0.0193170258572729,0.07));
#361=CARTESIAN_POINT('',(0.145833333333333,-0.0368170258572729,0.0621585129286364));
#362=CARTESIAN_POINT('',(0.166666666666667,0.,0.07));
#363=CARTESIAN_POINT('',(0.166666666666667,-0.0193170258572729,0.07));
#364=CARTESIAN_POINT('',(0.166666666666667,-0.0368170258572729,0.0621585129286364));
#365=CARTESIAN_POINT('',(0.125,-0.0494877693929547,0.0494877693929547));
#366=CARTESIAN_POINT('',(0.125,-0.0621585129286364,0.0368170258572729));
#367=CARTESIAN_POINT('',(0.125,-0.07,0.0193170258572729));
#368=CARTESIAN_POINT('',(0.125,-0.07,0.));
#369=CARTESIAN_POINT('',(0.145833333333333,-0.0494877693929547,0.0494877693929547));
#370=CARTESIAN_POINT('',(0.145833333333333,-0.0621585129286364,0.0368170258572729));
#371=CARTESIAN_POINT('',(0.145833333333333,-0.07,0.0193170258572729));
#372=CARTESIAN_POINT('',(0.145833333333333,-0.07,0.));
#373=CARTESIAN_POINT('',(0.166666666666667,-0.0494877693929547,0.0494877693929547));
#374=CARTESIAN_POINT('',(0.166666666666667,-0.0621585129286364,0.0368170258572729));
#375=CARTESIAN_POINT('',(0.166666666666667,-0.07,0.0193170258572729));
#376=CARTESIAN_POINT('',(0.166666666666667,-0.07,0.));
#377=CARTESIAN_POINT('',(0.1875,0.,0.07));
#378=CARTESIAN_POINT('',(0.1875,-0.0193170258572729,0.07));
#379=CARTESIAN_POINT('',(0.1875,-0.0368170258572729,0.0621585129286364));
#380=CARTESIAN_POINT('',(0.208333333333333,0.,0.07));
#381=CARTESIAN_POINT('',(0.208333333333333,-0.0193170258572729,0.07));
#382=CARTESIAN_POINT('',(0.208333333333333,-0.0368170258572729,0.0621585129286364));
#383=CARTESIAN_POINT('',(0.23895145654396,-5.80411085057813E-18,0.0810485434560398));
#384=CARTESIAN_POINT('',(0.23895145654396,-0.0222029482206958,0.0810485434560398));
#385=CARTESIAN_POINT('',(0.23895145654396,-0.0425888705841187,0.0720116682017907));
#386=CARTESIAN_POINT('',(0.25,0.,0.07));
#387=CARTESIAN_POINT('',(0.25,-0.0193170258572729,0.07));
#388=CARTESIAN_POINT('',(0.25,-0.0368170258572729,0.0621585129286364));
#389=CARTESIAN_POINT('',(0.1875,-0.0494877693929547,0.0494877693929547));
#390=CARTESIAN_POINT('',(0.1875,-0.0621585129286364,0.0368170258572729));
#391=CARTESIAN_POINT('',(0.1875,-0.07,0.0193170258572729));
#392=CARTESIAN_POINT('',(0.1875,-0.07,0.));
#393=CARTESIAN_POINT('',(0.208333333333333,-0.0494877693929547,0.0494877693929547));
#394=CARTESIAN_POINT('',(0.208333333333333,-0.0621585129286364,0.0368170258572729));
#395=CARTESIAN_POINT('',(0.208333333333333,-0.07,0.0193170258572729));
#396=CARTESIAN_POINT('',(0.208333333333333,-0.07,0.));
#397=CARTESIAN_POINT('',(0.23895145654396,-0.0573002693929547,0.0573002693929547));
#398=CARTESIAN_POINT('',(0.23895145654396,-0.0720116682017907,0.0425888705841186));
#399=CARTESIAN_POINT('',(0.23895145654396,-0.0810485434560398,0.0222029482206958));
#400=CARTESIAN_POINT('',(0.23895145654396,-0.0810485434560398,1.76442027152289E-19));
#401=CARTESIAN_POINT('',(0.25,-0.0494877693929547,0.0494877693929547));
#402=CARTESIAN_POINT('',(0.25,-0.0621585129286364,0.0368170258572729));
#403=CARTESIAN_POINT('',(0.25,-0.07,0.0193170258572729));
#404=CARTESIAN_POINT('',(0.25,-0.07,0.));
#405=B_SPLINE_SURFACE_WITH_KNOTS('Surf_COMUQQRKFE, Body, 0, 7',3,3,((#406, #407, #408, #415, #416, #417, #418),(#409, #410, #411, #419, #420, #421, #422),(#412, #413, #414, #423, #424, #425, #426),(#427, #428, #429, #439, #440, #441, #442),(#430, #431, #432, #443, #444, #445, #446),(#433, #434, #435, #447, #448, #449, #450),(#436, #437, #438, #451, #452, #453, #454)),.UNSPECIFIED.,.F.,.F.,.F.,(4,3,4),(4,3,4),(0.,1.,2.),(0.,1.,2.),.PIECEWISE_BEZIER_KNOTS.);
#406=CARTESIAN_POINT('',(0.125,0.07,0.));
#407=CARTESIAN_POINT('',(0.125,0.07,0.0193170258572729));
#408=CARTESIAN_POINT('',(0.125,0.0621585129286364,0.0368170258572729));
#409=CARTESIAN_POINT('',(0.145833333333333,0.07,0.));
#410=CARTESIAN_POINT('',(0.145833333333333,0.07,0.0193170258572729));
#411=CARTESIAN_POINT('',(0.145833333333333,0.0621585129286364,0.0368170258572729));
#412=CARTESIAN_POINT('',(0.166666666666667,0.07,0.));
#413=CARTESIAN_POINT('',(0.166666666666667,0.07,0.0193170258572729));
#414=CARTESIAN_POINT('',(0.166666666666667,0.0621585129286364,0.0368170258572729));
#415=CARTESIAN_POINT('',(0.125,0.0494877693929547,0.0494877693929547));
#416=CARTESIAN_POINT('',(0.125,0.0368170258572729,0.0621585129286364));
#417=CARTESIAN_POINT('',(0.125,0.0193170258572729,0.07));
#418=CARTESIAN_POINT('',(0.125,0.,0.07));
#419=CARTESIAN_POINT('',(0.145833333333333,0.0494877693929547,0.0494877693929547));
#420=CARTESIAN_POINT('',(0.145833333333333,0.0368170258572729,0.0621585129286364));
#421=CARTESIAN_POINT('',(0.145833333333333,0.0193170258572729,0.07));
#422=CARTESIAN_POINT('',(0.145833333333333,0.,0.07));
#423=CARTESIAN_POINT('',(0.166666666666667,0.0494877693929547,0.0494877693929547));
#424=CARTESIAN_POINT('',(0.166666666666667,0.0368170258572729,0.0621585129286364));
#425=CARTESIAN_POINT('',(0.166666666666667,0.0193170258572729,0.07));
#426=CARTESIAN_POINT('',(0.166666666666667,0.,0.07));
#427=CARTESIAN_POINT('',(0.1875,0.07,0.));
#428=CARTESIAN_POINT('',(0.1875,0.07,0.0193170258572729));
#429=CARTESIAN_POINT('',(0.1875,0.0621585129286364,0.0368170258572729));
#430=CARTESIAN_POINT('',(0.208333333333333,0.07,0.));
#431=CARTESIAN_POINT('',(0.208333333333333,0.07,0.0193170258572729));
#432=CARTESIAN_POINT('',(0.208333333333333,0.0621585129286364,0.0368170258572729));
#433=CARTESIAN_POINT('',(0.23895145654396,0.0810485434560398,0.));
#434=CARTESIAN_POINT('',(0.23895145654396,0.0810485434560398,0.0222029482206958));
#435=CARTESIAN_POINT('',(0.23895145654396,0.0720116682017907,0.0425888705841186));
#436=CARTESIAN_POINT('',(0.25,0.07,0.));
#437=CARTESIAN_POINT('',(0.25,0.07,0.0193170258572729));
#438=CARTESIAN_POINT('',(0.25,0.0621585129286364,0.0368170258572729));
#439=CARTESIAN_POINT('',(0.1875,0.0494877693929547,0.0494877693929547));
#440=CARTESIAN_POINT('',(0.1875,0.0368170258572729,0.0621585129286364));
#441=CARTESIAN_POINT('',(0.1875,0.0193170258572729,0.07));
#442=CARTESIAN_POINT('',(0.1875,0.,0.07));
#443=CARTESIAN_POINT('',(0.208333333333333,0.0494877693929547,0.0494877693929547));
#444=CARTESIAN_POINT('',(0.208333333333333,0.0368170258572729,0.0621585129286364));
#445=CARTESIAN_POINT('',(0.208333333333333,0.0193170258572729,0.07));
#446=CARTESIAN_POINT('',(0.208333333333333,0.,0.07));
#447=CARTESIAN_POINT('',(0.23895145654396,0.0573002693929546,0.0573002693929547));
#448=CARTESIAN_POINT('',(0.23895145654396,0.0425888705841186,0.0720116682017907));
#449=CARTESIAN_POINT('',(0.23895145654396,0.0222029482206958,0.0810485434560398));
#450=CARTESIAN_POINT('',(0.23895145654396,-5.80411085057813E-18,0.0810485434560398));
#451=CARTESIAN_POINT('',(0.25,0.0494877693929547,0.0494877693929547));
#452=CARTESIAN_POINT('',(0.25,0.0368170258572729,0.0621585129286364));
#453=CARTESIAN_POINT('',(0.25,0.0193170258572729,0.07));
#454=CARTESIAN_POINT('',(0.25,0.,0.07));
#455=GEOMETRIC_SET('COMUQQRKFE, Body, 0',(#55,#105,#155,#205,#255,#305,#355,#405));
#456=GEOMETRICALLY_BOUNDED_SURFACE_SHAPE_REPRESENTATION('',(#455),#15);
#457=SHAPE_REPRESENTATION_RELATIONSHIP('','',#29,#456);
ENDSEC;
END-ISO-10303-21;
