0
SECTION
2
HEADER
9
$INSUNITS
70
4
0
ENDSEC
0
SECTION
2
ENTITIES
0
LINE
8
Centerline
62
1
10
-20
20
0
30
0
11
700
21
0
31
0
0
LINE
8
Fuselage
62
5
10
0
20
15.0
30
0
11
2
21
17.31712222331602
31
0
0
LINE
8
Fuselage
62
5
10
2
20
17.31712222331602
30
0
11
4
21
19.54597801089112
31
0
0
LINE
8
Fuselage
62
5
10
4
20
19.54597801089112
30
0
11
6
21
21.692019836522178
31
0
0
LINE
8
Fuselage
62
5
10
6
20
21.692019836522178
30
0
11
8
21
23.76008092965749
31
0
0
LINE
8
Fuselage
62
5
10
8
20
23.76008092965749
30
0
11
10
21
25.754469171074348
31
0
0
LINE
8
Fuselage
62
5
10
10
20
25.754469171074348
30
0
11
12
21
27.679043340797676
31
0
0
LINE
8
Fuselage
62
5
10
12
20
27.679043340797676
30
0
11
14
21
29.53727561573055
31
0
0
LINE
8
Fuselage
62
5
10
14
20
29.53727561573055
30
0
11
16
21
31.332303235355994
31
0
0
LINE
8
Fuselage
62
5
10
16
20
31.332303235355994
30
0
11
18
21
33.06697154820071
31
0
0
LINE
8
Fuselage
62
5
10
18
20
33.06697154820071
30
0
11
20
21
34.74387013604394
31
0
0
LINE
8
Fuselage
62
5
10
20
20
34.74387013604394
30
0
11
22
21
36.36536333112909
31
0
0
LINE
8
Fuselage
62
5
10
22
20
36.36536333112909
30
0
11
24
21
37.93361615574702
31
0
0
LINE
8
Fuselage
62
5
10
24
20
37.93361615574702
30
0
11
26
21
39.45061649710277
31
0
0
LINE
8
Fuselage
62
5
10
26
20
39.45061649710277
30
0
11
28
21
40.91819416483426
31
0
0
LINE
8
Fuselage
62
5
10
28
20
40.91819416483426
30
0
11
30
21
42.33803735075341
31
0
0
LINE
8
Fuselage
62
5
10
30
20
42.33803735075341
30
0
11
32
21
43.711706910853394
31
0
0
LINE
8
Fuselage
62
5
10
32
20
43.711706910853394
30
0
11
34
21
45.04064881148628
31
0
0
LINE
8
Fuselage
62
5
10
34
20
45.04064881148628
30
0
11
36
21
46.32620501979048
31
0
0
LINE
8
Fuselage
62
5
10
36
20
46.32620501979048
30
0
11
38
21
47.56962306918274
31
0
0
LINE
8
Fuselage
62
5
10
38
20
47.56962306918274
30
0
11
40
21
48.77206449120612
31
0
0
LINE
8
Fuselage
62
5
10
40
20
48.77206449120612
30
0
11
42
21
49.93461227311397
31
0
0
LINE
8
Fuselage
62
5
10
42
20
49.93461227311397
30
0
11
44
21
51.05827747465031
31
0
0
LINE
8
Fuselage
62
5
10
44
20
51.05827747465031
30
0
11
46
21
52.14400511631479
31
0
0
LINE
8
Fuselage
62
5
10
46
20
52.14400511631479
30
0
11
48
21
53.19267943401027
31
0
0
LINE
8
Fuselage
62
5
10
48
20
53.19267943401027
30
0
11
50
21
54.20512858061747
31
0
0
LINE
8
Fuselage
62
5
10
50
20
54.20512858061747
30
0
11
52
21
55.18212884313343
31
0
0
LINE
8
Fuselage
62
5
10
52
20
55.18212884313343
30
0
11
54
21
56.124408434088764
31
0
0
LINE
8
Fuselage
62
5
10
54
20
56.124408434088764
30
0
11
56
21
57.032650907652226
31
0
0
LINE
8
Fuselage
62
5
10
56
20
57.032650907652226
30
0
11
58
21
57.90749824385094
31
0
0
LINE
8
Fuselage
62
5
10
58
20
57.90749824385094
30
0
11
60
21
58.74955363844242
31
0
0
LINE
8
Fuselage
62
5
10
60
20
58.74955363844242
30
0
11
62
21
59.55938403098355
31
0
0
LINE
8
Fuselage
62
5
10
62
20
59.55938403098355
30
0
11
64
21
60.337522399397244
31
0
0
LINE
8
Fuselage
62
5
10
64
20
60.337522399397244
30
0
11
66
21
61.084469845715745
31
0
0
LINE
8
Fuselage
62
5
10
66
20
61.084469845715745
30
0
11
68
21
61.80069749457786
31
0
0
LINE
8
Fuselage
62
5
10
68
20
61.80069749457786
30
0
11
70
21
62.48664822339339
31
0
0
LINE
8
Fuselage
62
5
10
70
20
62.48664822339339
30
0
11
72
21
63.14273824079066
31
0
0
LINE
8
Fuselage
62
5
10
72
20
63.14273824079066
30
0
11
74
21
63.76935852797823
31
0
0
LINE
8
Fuselage
62
5
10
74
20
63.76935852797823
30
0
11
76
21
64.36687615592962
31
0
0
LINE
8
Fuselage
62
5
10
76
20
64.36687615592962
30
0
11
78
21
64.9356354898018
31
0
0
LINE
8
Fuselage
62
5
10
78
20
64.9356354898018
30
0
11
80
21
65.47595929069203
31
0
0
LINE
8
Fuselage
62
5
10
80
20
65.47595929069203
30
0
11
82
21
65.98814972369414
31
0
0
LINE
8
Fuselage
62
5
10
82
20
65.98814972369414
30
0
11
84
21
66.47248928021224
31
0
0
LINE
8
Fuselage
62
5
10
84
20
66.47248928021224
30
0
11
86
21
66.9292416216073
31
0
0
LINE
8
Fuselage
62
5
10
86
20
66.9292416216073
30
0
11
88
21
67.35865235047305
31
0
0
LINE
8
Fuselage
62
5
10
88
20
67.35865235047305
30
0
11
90
21
67.7609497151474
31
0
0
LINE
8
Fuselage
62
5
10
90
20
67.7609497151474
30
0
11
92
21
68.13634525245422
31
0
0
LINE
8
Fuselage
62
5
10
92
20
68.13634525245422
30
0
11
94
21
68.48503437312402
31
0
0
LINE
8
Fuselage
62
5
10
94
20
68.48503437312402
30
0
11
96
21
68.80719689385501
31
0
0
LINE
8
Fuselage
62
5
10
96
20
68.80719689385501
30
0
11
98
21
69.10299751953872
31
0
0
LINE
8
Fuselage
62
5
10
98
20
69.10299751953872
30
0
11
100
21
69.37258627878055
31
0
0
LINE
8
Fuselage
62
5
10
100
20
69.37258627878055
30
0
11
102
21
69.61609891549017
31
0
0
LINE
8
Fuselage
62
5
10
102
20
69.61609891549017
30
0
11
104
21
69.83365723899351
31
0
0
LINE
8
Fuselage
62
5
10
104
20
69.83365723899351
30
0
11
106
21
70.02536943482289
31
0
0
LINE
8
Fuselage
62
5
10
106
20
70.02536943482289
30
0
11
108
21
70.19133033807285
31
0
0
LINE
8
Fuselage
62
5
10
108
20
70.19133033807285
30
0
11
110
21
70.33162167095864
31
0
0
LINE
8
Fuselage
62
5
10
110
20
70.33162167095864
30
0
11
112
21
70.44631224598393
31
0
0
LINE
8
Fuselage
62
5
10
112
20
70.44631224598393
30
0
11
114
21
70.53545813590821
31
0
0
LINE
8
Fuselage
62
5
10
114
20
70.53545813590821
30
0
11
116
21
70.59910281150019
31
0
0
LINE
8
Fuselage
62
5
10
116
20
70.59910281150019
30
0
11
118
21
70.6372772478716
31
0
0
LINE
8
Fuselage
62
5
10
118
20
70.6372772478716
30
0
11
120
21
70.65
31
0
0
LINE
8
Fuselage
62
5
10
120
20
70.65
30
0
11
130
21
70.65
31
0
0
LINE
8
Fuselage
62
5
10
130
20
70.65
30
0
11
150
21
70.65
31
0
0
LINE
8
Fuselage
62
5
10
150
20
70.65
30
0
11
200
21
70.65
31
0
0
LINE
8
Fuselage
62
5
10
200
20
70.65
30
0
11
230
21
70.65
31
0
0
LINE
8
Fuselage
62
5
10
230
20
70.65
30
0
11
300
21
70.65
31
0
0
LINE
8
Fuselage
62
5
10
300
20
70.65
30
0
11
400
21
70.65
31
0
0
LINE
8
Fuselage
62
5
10
400
20
70.65
30
0
11
480
21
70.65
31
0
0
LINE
8
Fuselage
62
5
10
480
20
70.65
30
0
11
530
21
70.65
31
0
0
LINE
8
Fuselage
62
5
10
530
20
70.65
30
0
11
530
21
70.65
31
0
0
LINE
8
Fuselage
62
5
10
530
20
70.65
30
0
11
535
21
68.96166666666667
31
0
0
LINE
8
Fuselage
62
5
10
535
20
68.96166666666667
30
0
11
540
21
67.27333333333334
31
0
0
LINE
8
Fuselage
62
5
10
540
20
67.27333333333334
30
0
11
545
21
65.58500000000001
31
0
0
LINE
8
Fuselage
62
5
10
545
20
65.58500000000001
30
0
11
550
21
63.896666666666675
31
0
0
LINE
8
Fuselage
62
5
10
550
20
63.896666666666675
30
0
11
555
21
62.20833333333334
31
0
0
LINE
8
Fuselage
62
5
10
555
20
62.20833333333334
30
0
11
560
21
60.52
31
0
0
LINE
8
Fuselage
62
5
10
560
20
60.52
30
0
11
565
21
58.83166666666667
31
0
0
LINE
8
Fuselage
62
5
10
565
20
58.83166666666667
30
0
11
570
21
57.14333333333334
31
0
0
LINE
8
Fuselage
62
5
10
570
20
57.14333333333334
30
0
11
575
21
55.455000000000005
31
0
0
LINE
8
Fuselage
62
5
10
575
20
55.455000000000005
30
0
11
580
21
53.76666666666667
31
0
0
LINE
8
Fuselage
62
5
10
580
20
53.76666666666667
30
0
11
585
21
52.07833333333333
31
0
0
LINE
8
Fuselage
62
5
10
585
20
52.07833333333333
30
0
11
590
21
50.39
31
0
0
LINE
8
Fuselage
62
5
10
590
20
50.39
30
0
11
595
21
48.70166666666667
31
0
0
LINE
8
Fuselage
62
5
10
595
20
48.70166666666667
30
0
11
600
21
47.013333333333335
31
0
0
LINE
8
Fuselage
62
5
10
600
20
47.013333333333335
30
0
11
605
21
45.325
31
0
0
LINE
8
Fuselage
62
5
10
605
20
45.325
30
0
11
610
21
43.63666666666667
31
0
0
LINE
8
Fuselage
62
5
10
610
20
43.63666666666667
30
0
11
615
21
41.94833333333334
31
0
0
LINE
8
Fuselage
62
5
10
615
20
41.94833333333334
30
0
11
620
21
40.260000000000005
31
0
0
LINE
8
Fuselage
62
5
10
620
20
40.260000000000005
30
0
11
625
21
38.57166666666667
31
0
0
LINE
8
Fuselage
62
5
10
625
20
38.57166666666667
30
0
11
630
21
36.88333333333334
31
0
0
LINE
8
Fuselage
62
5
10
630
20
36.88333333333334
30
0
11
635
21
35.19500000000001
31
0
0
LINE
8
Fuselage
62
5
10
635
20
35.19500000000001
30
0
11
640
21
33.50666666666667
31
0
0
LINE
8
Fuselage
62
5
10
640
20
33.50666666666667
30
0
11
645
21
31.818333333333335
31
0
0
LINE
8
Fuselage
62
5
10
645
20
31.818333333333335
30
0
11
650
21
30.129999999999995
31
0
0
LINE
8
Fuselage
62
5
10
650
20
30.129999999999995
30
0
11
655
21
28.441666666666663
31
0
0
LINE
8
Fuselage
62
5
10
655
20
28.441666666666663
30
0
11
660
21
26.75333333333333
31
0
0
LINE
8
Fuselage
62
5
10
660
20
26.75333333333333
30
0
11
665
21
25.064999999999998
31
0
0
LINE
8
Fuselage
62
5
10
665
20
25.064999999999998
30
0
11
670
21
23.376666666666665
31
0
0
LINE
8
Fuselage
62
5
10
670
20
23.376666666666665
30
0
11
675
21
21.688333333333333
31
0
0
LINE
8
Fuselage
62
5
10
675
20
21.688333333333333
30
0
11
680
21
20.0
31
0
0
LINE
8
Fuselage
62
5
10
0
20
-15.0
30
0
11
2
21
-17.31712222331602
31
0
0
LINE
8
Fuselage
62
5
10
2
20
-17.31712222331602
30
0
11
4
21
-19.54597801089112
31
0
0
LINE
8
Fuselage
62
5
10
4
20
-19.54597801089112
30
0
11
6
21
-21.692019836522178
31
0
0
LINE
8
Fuselage
62
5
10
6
20
-21.692019836522178
30
0
11
8
21
-23.76008092965749
31
0
0
LINE
8
Fuselage
62
5
10
8
20
-23.76008092965749
30
0
11
10
21
-25.754469171074348
31
0
0
LINE
8
Fuselage
62
5
10
10
20
-25.754469171074348
30
0
11
12
21
-27.679043340797676
31
0
0
LINE
8
Fuselage
62
5
10
12
20
-27.679043340797676
30
0
11
14
21
-29.53727561573055
31
0
0
LINE
8
Fuselage
62
5
10
14
20
-29.53727561573055
30
0
11
16
21
-31.332303235355994
31
0
0
LINE
8
Fuselage
62
5
10
16
20
-31.332303235355994
30
0
11
18
21
-33.06697154820071
31
0
0
LINE
8
Fuselage
62
5
10
18
20
-33.06697154820071
30
0
11
20
21
-34.74387013604394
31
0
0
LINE
8
Fuselage
62
5
10
20
20
-34.74387013604394
30
0
11
22
21
-36.36536333112909
31
0
0
LINE
8
Fuselage
62
5
10
22
20
-36.36536333112909
30
0
11
24
21
-37.93361615574702
31
0
0
LINE
8
Fuselage
62
5
10
24
20
-37.93361615574702
30
0
11
26
21
-39.45061649710277
31
0
0
LINE
8
Fuselage
62
5
10
26
20
-39.45061649710277
30
0
11
28
21
-40.91819416483426
31
0
0
LINE
8
Fuselage
62
5
10
28
20
-40.91819416483426
30
0
11
30
21
-42.33803735075341
31
0
0
LINE
8
Fuselage
62
5
10
30
20
-42.33803735075341
30
0
11
32
21
-43.711706910853394
31
0
0
LINE
8
Fuselage
62
5
10
32
20
-43.711706910853394
30
0
11
34
21
-45.04064881148628
31
0
0
LINE
8
Fuselage
62
5
10
34
20
-45.04064881148628
30
0
11
36
21
-46.32620501979048
31
0
0
LINE
8
Fuselage
62
5
10
36
20
-46.32620501979048
30
0
11
38
21
-47.56962306918274
31
0
0
LINE
8
Fuselage
62
5
10
38
20
-47.56962306918274
30
0
11
40
21
-48.77206449120612
31
0
0
LINE
8
Fuselage
62
5
10
40
20
-48.77206449120612
30
0
11
42
21
-49.93461227311397
31
0
0
LINE
8
Fuselage
62
5
10
42
20
-49.93461227311397
30
0
11
44
21
-51.05827747465031
31
0
0
LINE
8
Fuselage
62
5
10
44
20
-51.05827747465031
30
0
11
46
21
-52.14400511631479
31
0
0
LINE
8
Fuselage
62
5
10
46
20
-52.14400511631479
30
0
11
48
21
-53.19267943401027
31
0
0
LINE
8
Fuselage
62
5
10
48
20
-53.19267943401027
30
0
11
50
21
-54.20512858061747
31
0
0
LINE
8
Fuselage
62
5
10
50
20
-54.20512858061747
30
0
11
52
21
-55.18212884313343
31
0
0
LINE
8
Fuselage
62
5
10
52
20
-55.18212884313343
30
0
11
54
21
-56.124408434088764
31
0
0
LINE
8
Fuselage
62
5
10
54
20
-56.124408434088764
30
0
11
56
21
-57.032650907652226
31
0
0
LINE
8
Fuselage
62
5
10
56
20
-57.032650907652226
30
0
11
58
21
-57.90749824385094
31
0
0
LINE
8
Fuselage
62
5
10
58
20
-57.90749824385094
30
0
11
60
21
-58.74955363844242
31
0
0
LINE
8
Fuselage
62
5
10
60
20
-58.74955363844242
30
0
11
62
21
-59.55938403098355
31
0
0
LINE
8
Fuselage
62
5
10
62
20
-59.55938403098355
30
0
11
64
21
-60.337522399397244
31
0
0
LINE
8
Fuselage
62
5
10
64
20
-60.337522399397244
30
0
11
66
21
-61.084469845715745
31
0
0
LINE
8
Fuselage
62
5
10
66
20
-61.084469845715745
30
0
11
68
21
-61.80069749457786
31
0
0
LINE
8
Fuselage
62
5
10
68
20
-61.80069749457786
30
0
11
70
21
-62.48664822339339
31
0
0
LINE
8
Fuselage
62
5
10
70
20
-62.48664822339339
30
0
11
72
21
-63.14273824079066
31
0
0
LINE
8
Fuselage
62
5
10
72
20
-63.14273824079066
30
0
11
74
21
-63.76935852797823
31
0
0
LINE
8
Fuselage
62
5
10
74
20
-63.76935852797823
30
0
11
76
21
-64.36687615592962
31
0
0
LINE
8
Fuselage
62
5
10
76
20
-64.36687615592962
30
0
11
78
21
-64.9356354898018
31
0
0
LINE
8
Fuselage
62
5
10
78
20
-64.9356354898018
30
0
11
80
21
-65.47595929069203
31
0
0
LINE
8
Fuselage
62
5
10
80
20
-65.47595929069203
30
0
11
82
21
-65.98814972369414
31
0
0
LINE
8
Fuselage
62
5
10
82
20
-65.98814972369414
30
0
11
84
21
-66.47248928021224
31
0
0
LINE
8
Fuselage
62
5
10
84
20
-66.47248928021224
30
0
11
86
21
-66.9292416216073
31
0
0
LINE
8
Fuselage
62
5
10
86
20
-66.9292416216073
30
0
11
88
21
-67.35865235047305
31
0
0
LINE
8
Fuselage
62
5
10
88
20
-67.35865235047305
30
0
11
90
21
-67.7609497151474
31
0
0
LINE
8
Fuselage
62
5
10
90
20
-67.7609497151474
30
0
11
92
21
-68.13634525245422
31
0
0
LINE
8
Fuselage
62
5
10
92
20
-68.13634525245422
30
0
11
94
21
-68.48503437312402
31
0
0
LINE
8
Fuselage
62
5
10
94
20
-68.48503437312402
30
0
11
96
21
-68.80719689385501
31
0
0
LINE
8
Fuselage
62
5
10
96
20
-68.80719689385501
30
0
11
98
21
-69.10299751953872
31
0
0
LINE
8
Fuselage
62
5
10
98
20
-69.10299751953872
30
0
11
100
21
-69.37258627878055
31
0
0
LINE
8
Fuselage
62
5
10
100
20
-69.37258627878055
30
0
11
102
21
-69.61609891549017
31
0
0
LINE
8
Fuselage
62
5
10
102
20
-69.61609891549017
30
0
11
104
21
-69.83365723899351
31
0
0
LINE
8
Fuselage
62
5
10
104
20
-69.83365723899351
30
0
11
106
21
-70.02536943482289
31
0
0
LINE
8
Fuselage
62
5
10
106
20
-70.02536943482289
30
0
11
108
21
-70.19133033807285
31
0
0
LINE
8
Fuselage
62
5
10
108
20
-70.19133033807285
30
0
11
110
21
-70.33162167095864
31
0
0
LINE
8
Fuselage
62
5
10
110
20
-70.33162167095864
30
0
11
112
21
-70.44631224598393
31
0
0
LINE
8
Fuselage
62
5
10
112
20
-70.44631224598393
30
0
11
114
21
-70.53545813590821
31
0
0
LINE
8
Fuselage
62
5
10
114
20
-70.53545813590821
30
0
11
116
21
-70.59910281150019
31
0
0
LINE
8
Fuselage
62
5
10
116
20
-70.59910281150019
30
0
11
118
21
-70.6372772478716
31
0
0
LINE
8
Fuselage
62
5
10
118
20
-70.6372772478716
30
0
11
120
21
-70.65
31
0
0
LINE
8
Fuselage
62
5
10
120
20
-70.65
30
0
11
130
21
-70.65
31
0
0
LINE
8
Fuselage
62
5
10
130
20
-70.65
30
0
11
150
21
-70.65
31
0
0
LINE
8
Fuselage
62
5
10
150
20
-70.65
30
0
11
200
21
-70.65
31
0
0
LINE
8
Fuselage
62
5
10
200
20
-70.65
30
0
11
230
21
-70.65
31
0
0
LINE
8
Fuselage
62
5
10
230
20
-70.65
30
0
11
300
21
-70.65
31
0
0
LINE
8
Fuselage
62
5
10
300
20
-70.65
30
0
11
400
21
-70.65
31
0
0
LINE
8
Fuselage
62
5
10
400
20
-70.65
30
0
11
480
21
-70.65
31
0
0
LINE
8
Fuselage
62
5
10
480
20
-70.65
30
0
11
530
21
-70.65
31
0
0
LINE
8
Fuselage
62
5
10
530
20
-70.65
30
0
11
530
21
-70.65
31
0
0
LINE
8
Fuselage
62
5
10
530
20
-70.65
30
0
11
535
21
-68.96166666666667
31
0
0
LINE
8
Fuselage
62
5
10
535
20
-68.96166666666667
30
0
11
540
21
-67.27333333333334
31
0
0
LINE
8
Fuselage
62
5
10
540
20
-67.27333333333334
30
0
11
545
21
-65.58500000000001
31
0
0
LINE
8
Fuselage
62
5
10
545
20
-65.58500000000001
30
0
11
550
21
-63.896666666666675
31
0
0
LINE
8
Fuselage
62
5
10
550
20
-63.896666666666675
30
0
11
555
21
-62.20833333333334
31
0
0
LINE
8
Fuselage
62
5
10
555
20
-62.20833333333334
30
0
11
560
21
-60.52
31
0
0
LINE
8
Fuselage
62
5
10
560
20
-60.52
30
0
11
565
21
-58.83166666666667
31
0
0
LINE
8
Fuselage
62
5
10
565
20
-58.83166666666667
30
0
11
570
21
-57.14333333333334
31
0
0
LINE
8
Fuselage
62
5
10
570
20
-57.14333333333334
30
0
11
575
21
-55.455000000000005
31
0
0
LINE
8
Fuselage
62
5
10
575
20
-55.455000000000005
30
0
11
580
21
-53.76666666666667
31
0
0
LINE
8
Fuselage
62
5
10
580
20
-53.76666666666667
30
0
11
585
21
-52.07833333333333
31
0
0
LINE
8
Fuselage
62
5
10
585
20
-52.07833333333333
30
0
11
590
21
-50.39
31
0
0
LINE
8
Fuselage
62
5
10
590
20
-50.39
30
0
11
595
21
-48.70166666666667
31
0
0
LINE
8
Fuselage
62
5
10
595
20
-48.70166666666667
30
0
11
600
21
-47.013333333333335
31
0
0
LINE
8
Fuselage
62
5
10
600
20
-47.013333333333335
30
0
11
605
21
-45.325
31
0
0
LINE
8
Fuselage
62
5
10
605
20
-45.325
30
0
11
610
21
-43.63666666666667
31
0
0
LINE
8
Fuselage
62
5
10
610
20
-43.63666666666667
30
0
11
615
21
-41.94833333333334
31
0
0
LINE
8
Fuselage
62
5
10
615
20
-41.94833333333334
30
0
11
620
21
-40.260000000000005
31
0
0
LINE
8
Fuselage
62
5
10
620
20
-40.260000000000005
30
0
11
625
21
-38.57166666666667
31
0
0
LINE
8
Fuselage
62
5
10
625
20
-38.57166666666667
30
0
11
630
21
-36.88333333333334
31
0
0
LINE
8
Fuselage
62
5
10
630
20
-36.88333333333334
30
0
11
635
21
-35.19500000000001
31
0
0
LINE
8
Fuselage
62
5
10
635
20
-35.19500000000001
30
0
11
640
21
-33.50666666666667
31
0
0
LINE
8
Fuselage
62
5
10
640
20
-33.50666666666667
30
0
11
645
21
-31.818333333333335
31
0
0
LINE
8
Fuselage
62
5
10
645
20
-31.818333333333335
30
0
11
650
21
-30.129999999999995
31
0
0
LINE
8
Fuselage
62
5
10
650
20
-30.129999999999995
30
0
11
655
21
-28.441666666666663
31
0
0
LINE
8
Fuselage
62
5
10
655
20
-28.441666666666663
30
0
11
660
21
-26.75333333333333
31
0
0
LINE
8
Fuselage
62
5
10
660
20
-26.75333333333333
30
0
11
665
21
-25.064999999999998
31
0
0
LINE
8
Fuselage
62
5
10
665
20
-25.064999999999998
30
0
11
670
21
-23.376666666666665
31
0
0
LINE
8
Fuselage
62
5
10
670
20
-23.376666666666665
30
0
11
675
21
-21.688333333333333
31
0
0
LINE
8
Fuselage
62
5
10
675
20
-21.688333333333333
30
0
11
680
21
-20.0
31
0
0
LINE
8
Fuselage
62
5
10
0
20
15.0
30
0
11
0
21
-15.0
31
0
0
LINE
8
Fuselage
62
5
10
680
20
20.0
30
0
11
680
21
-20.0
31
0
0
LINE
8
Splits
62
3
10
230
20
80.65
30
0
11
230
21
-80.65
31
0
0
LINE
8
Splits
62
3
10
480
20
80.65
30
0
11
480
21
-80.65
31
0
0
LINE
8
Fins
62
4
10
530
20
70.65
30
0
11
530
21
230.65
31
0
0
LINE
8
Fins
62
4
10
530
20
230.65
30
0
11
610
21
230.65
31
0
0
LINE
8
Fins
62
4
10
610
20
230.65
30
0
11
610
21
43.63666666666667
31
0
0
LINE
8
Fins
62
4
10
610
20
43.63666666666667
30
0
11
530
21
70.65
31
0
0
LINE
8
Fins
62
4
10
530
20
-70.65
30
0
11
530
21
-230.65
31
0
0
LINE
8
Fins
62
4
10
530
20
-230.65
30
0
11
610
21
-230.65
31
0
0
LINE
8
Fins
62
4
10
610
20
-230.65
30
0
11
610
21
-43.63666666666667
31
0
0
LINE
8
Fins
62
4
10
610
20
-43.63666666666667
30
0
11
530
21
-70.65
31
0
0
LINE
8
Pods
62
6
10
520
20
214.65
30
0
11
520
21
246.65
31
0
0
LINE
8
Pods
62
6
10
520
20
246.65
30
0
11
610
21
246.65
31
0
0
LINE
8
Pods
62
6
10
610
20
246.65
30
0
11
610
21
214.65
31
0
0
LINE
8
Pods
62
6
10
610
20
214.65
30
0
11
520
21
214.65
31
0
0
LINE
8
Pods
62
6
10
520
20
-246.65
30
0
11
520
21
-214.65
31
0
0
LINE
8
Pods
62
6
10
520
20
-214.65
30
0
11
610
21
-214.65
31
0
0
LINE
8
Pods
62
6
10
610
20
-214.65
30
0
11
610
21
-246.65
31
0
0
LINE
8
Pods
62
6
10
610
20
-246.65
30
0
11
520
21
-246.65
31
0
0
LINE
8
Dimensions
62
7
10
0
20
-100.65
30
0
11
680
21
-100.65
31
0
0
TEXT
8
Dimensions
62
7
10
310.0
20
-112.65
30
0
40
8
1
680mm
0
LINE
8
Dimensions
62
7
10
-15
20
70.65
30
0
11
-15
21
-70.65
31
0
0
TEXT
8
Dimensions
62
7
10
-65
20
0
30
0
40
6
1
141.3mm dia
0
TEXT
8
Dimensions
62
7
10
-40
20
20.0
30
0
40
5
1
30mm
0
TEXT
8
Dimensions
62
7
10
685
20
25.0
30
0
40
5
1
40mm
0
TEXT
8
Labels
62
3
10
80
20
90.65
30
0
40
6
1
NOSE (print)
0
TEXT
8
Labels
62
3
10
320
20
90.65
30
0
40
6
1
BODY (5in PVC)
0
TEXT
8
Labels
62
3
10
550
20
90.65
30
0
40
6
1
AFT (print)
0
ENDSEC
0
EOF
