solid Created by Gmsh
facet normal 1 0 0
  outer loop
    vertex 0 0.04 0
    vertex 0 0.01999999990793166 0.03464101620453323
    vertex 0 1.445435784952487e-12 -7.652791479221635e-11
  endloop
endfacet
facet normal 1 0 0
  outer loop
    vertex 0 -0.02000000019823583 0.03464101603692603
    vertex 0 -0.04 -3.438095100848977e-10
    vertex 0 1.445435784952487e-12 -7.652791479221635e-11
  endloop
endfacet
facet normal 1 0 0
  outer loop
    vertex 0 0.01999999990793166 0.03464101620453323
    vertex 0 -0.02000000019823583 0.03464101603692603
    vertex 0 1.445435784952487e-12 -7.652791479221635e-11
  endloop
endfacet
facet normal 1 0 -0
  outer loop
    vertex 0 0.0200000001026692 -0.03464101609210145
    vertex 0 0.04 0
    vertex 0 1.445435784952487e-12 -7.652791479221635e-11
  endloop
endfacet
facet normal 1 -0 0
  outer loop
    vertex 0 -0.04 -3.438095100848977e-10
    vertex 0 -0.01999999980369242 -0.03464101626471579
    vertex 0 1.445435784952487e-12 -7.652791479221635e-11
  endloop
endfacet
facet normal 1 0 0
  outer loop
    vertex 0 -0.01999999980369242 -0.03464101626471579
    vertex 0 0.0200000001026692 -0.03464101609210145
    vertex 0 1.445435784952487e-12 -7.652791479221635e-11
  endloop
endfacet
facet normal 1 0 0
  outer loop
    vertex 0.15 -0.03500000034540237 0.06062177806549255
    vertex 0.15 -0.06568690133797848 0.02391256688492071
    vertex 0.15 -0.02421959312845809 0.002021354578840201
  endloop
endfacet
facet normal 1 0 0
  outer loop
    vertex 0.15 0.07000000000000001 0
    vertex 0.15 0.05355234162282342 0.04493024115278585
    vertex 0.15 0.02351033959843081 -0.006247544924839469
  endloop
endfacet
facet normal 1 7.81111e-16 1.43697e-16
  outer loop
    vertex 0.15 -0.03500000034540237 0.06062177806549255
    vertex 0.15 -0.02421959312845809 0.002021354578840201
    vertex 0.15 0.005712057146512503 0.03247189260808672
  endloop
endfacet
facet normal 1 -6.84865e-16 4.02024e-16
  outer loop
    vertex 0.15 0.02351033959843081 -0.006247544924839469
    vertex 0.15 0.05355234162282342 0.04493024115278585
    vertex 0.15 0.005712057146512503 0.03247189260808672
  endloop
endfacet
facet normal 1 -9.33248e-16 -2.40513e-17
  outer loop
    vertex 0.15 -0.06568690098068651 -0.0239125678901826
    vertex 0.15 -0.03499999965544599 -0.06062177846383905
    vertex 0.15 -0.005951542080449875 -0.03375559773772732
  endloop
endfacet
facet normal 1 -8.75078e-16 3.28972e-16
  outer loop
    vertex 0.15 -0.02421959312845809 0.002021354578840201
    vertex 0.15 -0.06568690098068651 -0.0239125678901826
    vertex 0.15 -0.005951542080449875 -0.03375559773772732
  endloop
endfacet
facet normal 1 -1.64478e-16 -8.75827e-16
  outer loop
    vertex 0.15 0.01213455989558933 -0.0688428087672569
    vertex 0.15 0.0535523417878712 -0.04493024095908617
    vertex 0.15 -0.005951542080449875 -0.03375559773772732
  endloop
endfacet
facet normal 1 1.57756e-16 8.40037e-16
  outer loop
    vertex 0.15 0.0535523417878712 -0.04493024095908617
    vertex 0.15 0.02351033959843081 -0.006247544924839469
    vertex 0.15 -0.005951542080449875 -0.03375559773772732
  endloop
endfacet
facet normal 1 -8.73118e-17 6.49711e-16
  outer loop
    vertex 0.15 0.0535523417878712 -0.04493024095908617
    vertex 0.15 0.07000000000000001 0
    vertex 0.15 0.02351033959843081 -0.006247544924839469
  endloop
endfacet
facet normal 1 -3.06378e-16 -5.80355e-16
  outer loop
    vertex 0.15 -0.06568690133797848 0.02391256688492071
    vertex 0.15 -0.06568690098068651 -0.0239125678901826
    vertex 0.15 -0.02421959312845809 0.002021354578840201
  endloop
endfacet
facet normal 1 1.37331e-16 -7.87376e-16
  outer loop
    vertex 0.15 0.01213455937838073 0.06884280886249673
    vertex 0.15 -0.03500000034540237 0.06062177806549255
    vertex 0.15 0.005712057146512503 0.03247189260808672
  endloop
endfacet
facet normal 1 -3.99828e-16 -6.92523e-16
  outer loop
    vertex 0.15 0.05355234162282342 0.04493024115278585
    vertex 0.15 0.01213455937838073 0.06884280886249673
    vertex 0.15 0.005712057146512503 0.03247189260808672
  endloop
endfacet
facet normal 1 1.34933e-16 7.78863e-16
  outer loop
    vertex 0.15 -0.02421959312845809 0.002021354578840201
    vertex 0.15 0.02351033959843081 -0.006247544924839469
    vertex 0.15 0.005712057146512503 0.03247189260808672
  endloop
endfacet
facet normal 1 -1.51601e-16 -8.6919e-16
  outer loop
    vertex 0.15 -0.03499999965544599 -0.06062177846383905
    vertex 0.15 0.01213455989558933 -0.0688428087672569
    vertex 0.15 -0.005951542080449875 -0.03375559773772732
  endloop
endfacet
facet normal 1 1.47444e-16 8.51081e-16
  outer loop
    vertex 0.15 0.02351033959843081 -0.006247544924839469
    vertex 0.15 -0.02421959312845809 0.002021354578840201
    vertex 0.15 -0.005951542080449875 -0.03375559773772732
  endloop
endfacet
facet normal 1 0 0
  outer loop
    vertex 0.15 -0.03500000034540237 0.06062177806549255
    vertex 0.15 -0.06568690133797848 0.02391256688492071
    vertex 0.15 -0.02421959312845809 0.002021354578840201
  endloop
endfacet
facet normal 1 0 0
  outer loop
    vertex 0.15 0.07000000000000001 0
    vertex 0.15 0.05355234162282342 0.04493024115278585
    vertex 0.15 0.02351033959843081 -0.006247544924839469
  endloop
endfacet
facet normal 1 7.81111e-16 1.43697e-16
  outer loop
    vertex 0.15 -0.03500000034540237 0.06062177806549255
    vertex 0.15 -0.02421959312845809 0.002021354578840201
    vertex 0.15 0.005712057146512503 0.03247189260808672
  endloop
endfacet
facet normal 1 -6.84865e-16 4.02024e-16
  outer loop
    vertex 0.15 0.02351033959843081 -0.006247544924839469
    vertex 0.15 0.05355234162282342 0.04493024115278585
    vertex 0.15 0.005712057146512503 0.03247189260808672
  endloop
endfacet
facet normal 1 -9.33248e-16 -2.40513e-17
  outer loop
    vertex 0.15 -0.06568690098068651 -0.0239125678901826
    vertex 0.15 -0.03499999965544599 -0.06062177846383905
    vertex 0.15 -0.005951542080449875 -0.03375559773772732
  endloop
endfacet
facet normal 1 -8.75078e-16 3.28972e-16
  outer loop
    vertex 0.15 -0.02421959312845809 0.002021354578840201
    vertex 0.15 -0.06568690098068651 -0.0239125678901826
    vertex 0.15 -0.005951542080449875 -0.03375559773772732
  endloop
endfacet
facet normal 1 -1.64478e-16 -8.75827e-16
  outer loop
    vertex 0.15 0.01213455989558933 -0.0688428087672569
    vertex 0.15 0.0535523417878712 -0.04493024095908617
    vertex 0.15 -0.005951542080449875 -0.03375559773772732
  endloop
endfacet
facet normal 1 1.57756e-16 8.40037e-16
  outer loop
    vertex 0.15 0.0535523417878712 -0.04493024095908617
    vertex 0.15 0.02351033959843081 -0.006247544924839469
    vertex 0.15 -0.005951542080449875 -0.03375559773772732
  endloop
endfacet
facet normal 1 -8.73118e-17 6.49711e-16
  outer loop
    vertex 0.15 0.0535523417878712 -0.04493024095908617
    vertex 0.15 0.07000000000000001 0
    vertex 0.15 0.02351033959843081 -0.006247544924839469
  endloop
endfacet
facet normal 1 -3.06378e-16 -5.80355e-16
  outer loop
    vertex 0.15 -0.06568690133797848 0.02391256688492071
    vertex 0.15 -0.06568690098068651 -0.0239125678901826
    vertex 0.15 -0.02421959312845809 0.002021354578840201
  endloop
endfacet
facet normal 1 1.37331e-16 -7.87376e-16
  outer loop
    vertex 0.15 0.01213455937838073 0.06884280886249673
    vertex 0.15 -0.03500000034540237 0.06062177806549255
    vertex 0.15 0.005712057146512503 0.03247189260808672
  endloop
endfacet
facet normal 1 -3.99828e-16 -6.92523e-16
  outer loop
    vertex 0.15 0.05355234162282342 0.04493024115278585
    vertex 0.15 0.01213455937838073 0.06884280886249673
    vertex 0.15 0.005712057146512503 0.03247189260808672
  endloop
endfacet
facet normal 1 1.34933e-16 7.78863e-16
  outer loop
    vertex 0.15 -0.02421959312845809 0.002021354578840201
    vertex 0.15 0.02351033959843081 -0.006247544924839469
    vertex 0.15 0.005712057146512503 0.03247189260808672
  endloop
endfacet
facet normal 1 -1.51601e-16 -8.6919e-16
  outer loop
    vertex 0.15 -0.03499999965544599 -0.06062177846383905
    vertex 0.15 0.01213455989558933 -0.0688428087672569
    vertex 0.15 -0.005951542080449875 -0.03375559773772732
  endloop
endfacet
facet normal 1 1.47444e-16 8.51081e-16
  outer loop
    vertex 0.15 0.02351033959843081 -0.006247544924839469
    vertex 0.15 -0.02421959312845809 0.002021354578840201
    vertex 0.15 -0.005951542080449875 -0.03375559773772732
  endloop
endfacet
facet normal 1 -6.45978e-16 1.97503e-15
  outer loop
    vertex 0.4500000000000001 0.002421752446892368 -0.03027041987168152
    vertex 0.45 0.002528052706669848 0.02597743562377419
    vertex 0.45 -0.03348762649042997 -0.01390887582958894
  endloop
endfacet
facet normal 1 -4.60325e-16 1.48022e-15
  outer loop
    vertex 0.45 0.06063547346472593 0.04404790191653716
    vertex 0.45 0.002528052706669848 0.02597743562377419
    vertex 0.45 0.03761410442022372 -0.0006132834336421635
  endloop
endfacet
facet normal 1 1.83484e-15 -3.05531e-16
  outer loop
    vertex 0.4500000000000001 0.002421752446892368 -0.03027041987168152
    vertex 0.45 0.06063547361072938 -0.04404790171977577
    vertex 0.45 0.03761410442022372 -0.0006132834336421635
  endloop
endfacet
facet normal 1 2.16665e-15 1.09647e-15
  outer loop
    vertex 0.4500000000000001 0.0231422891092681 -0.07121481976828584
    vertex 0.45 0.06063547361072938 -0.04404790171977577
    vertex 0.4500000000000001 0.002421752446892368 -0.03027041987168152
  endloop
endfacet
facet normal 1 0 0
  outer loop
    vertex 0.45 0.06063547346472593 0.04404790191653716
    vertex 0.45 0.02314228862646477 0.07121481992256307
    vertex 0.45 0.002528052706669848 0.02597743562377419
  endloop
endfacet
facet normal 1 -8.6129e-17 1.97397e-15
  outer loop
    vertex 0.45 0.002528052706669848 0.02597743562377419
    vertex 0.4500000000000001 0.002421752446892368 -0.03027041987168152
    vertex 0.45 0.03761410442022372 -0.0006132834336421635
  endloop
endfacet
facet normal 1 -1.2035e-15 7.51415e-16
  outer loop
    vertex 0.4500000000000001 -0.02314228849489503 -0.07121481996460546
    vertex 0.4500000000000001 0.002421752446892368 -0.03027041987168152
    vertex 0.45 -0.03348762649042997 -0.01390887582958894
  endloop
endfacet
facet normal 1 -2.59924e-15 4.99444e-16
  outer loop
    vertex 0.45 -0.06063547322667043 -0.04404790223735242
    vertex 0.4500000000000001 -0.02314228849489503 -0.07121481996460546
    vertex 0.45 -0.03348762649042997 -0.01390887582958894
  endloop
endfacet
facet normal 1 -1.33283e-16 1.51208e-15
  outer loop
    vertex 0.45 -0.03348762649042997 -0.01390887582958894
    vertex 0.45 0.002528052706669848 0.02597743562377419
    vertex 0.45 -0.03346725718213087 0.02280461145459337
  endloop
endfacet
facet normal 1 -2.05632e-17 1.25354e-15
  outer loop
    vertex 0.45 0.075 0
    vertex 0.45 0.06063547346472593 0.04404790191653716
    vertex 0.45 0.03761410442022372 -0.0006132834336421635
  endloop
endfacet
facet normal 1 2.07844e-17 -1.26702e-15
  outer loop
    vertex 0.45 0.06063547361072938 -0.04404790171977577
    vertex 0.45 0.075 0
    vertex 0.45 0.03761410442022372 -0.0006132834336421635
  endloop
endfacet
facet normal 1 0 0
  outer loop
    vertex 0.45 0.02314228862646477 0.07121481992256307
    vertex 0.45 -0.02314228922583053 0.07121481973103894
    vertex 0.45 0.002528052706669848 0.02597743562377419
  endloop
endfacet
facet normal 1 0 0
  outer loop
    vertex 0.4500000000000001 -0.02314228849489503 -0.07121481996460546
    vertex 0.4500000000000001 0.0231422891092681 -0.07121481976828584
    vertex 0.4500000000000001 0.002421752446892368 -0.03027041987168152
  endloop
endfacet
facet normal 1 0 0
  outer loop
    vertex 0.45 0.002528052706669848 0.02597743562377419
    vertex 0.45 -0.02314228922583053 0.07121481973103894
    vertex 0.45 -0.03346725718213087 0.02280461145459337
  endloop
endfacet
facet normal 1 0 0
  outer loop
    vertex 0.45 -0.02314228922583053 0.07121481973103894
    vertex 0.45 -0.06063547383889185 0.04404790141229284
    vertex 0.45 -0.03346725718213087 0.02280461145459337
  endloop
endfacet
facet normal 1 7.8519e-16 1.00419e-15
  outer loop
    vertex 0.45 -0.06063547383889185 0.04404790141229284
    vertex 0.45 -0.075 -6.432374056269588e-10
    vertex 0.45 -0.03346725718213087 0.02280461145459337
  endloop
endfacet
facet normal 1 -4.74046e-16 -1.41484e-15
  outer loop
    vertex 0.45 -0.075 -6.432374056269588e-10
    vertex 0.45 -0.06063547322667043 -0.04404790223735242
    vertex 0.45 -0.03348762649042997 -0.01390887582958894
  endloop
endfacet
facet normal 1 5.0651e-16 1.51173e-15
  outer loop
    vertex 0.45 -0.075 -6.432374056269588e-10
    vertex 0.45 -0.03348762649042997 -0.01390887582958894
    vertex 0.45 -0.03346725718213087 0.02280461145459337
  endloop
endfacet
facet normal 1 -6.45978e-16 1.97503e-15
  outer loop
    vertex 0.4500000000000001 0.002421752446892368 -0.03027041987168152
    vertex 0.45 0.002528052706669848 0.02597743562377419
    vertex 0.45 -0.03348762649042997 -0.01390887582958894
  endloop
endfacet
facet normal 1 -4.60325e-16 1.48022e-15
  outer loop
    vertex 0.45 0.06063547346472593 0.04404790191653716
    vertex 0.45 0.002528052706669848 0.02597743562377419
    vertex 0.45 0.03761410442022372 -0.0006132834336421635
  endloop
endfacet
facet normal 1 1.83484e-15 -3.05531e-16
  outer loop
    vertex 0.4500000000000001 0.002421752446892368 -0.03027041987168152
    vertex 0.45 0.06063547361072938 -0.04404790171977577
    vertex 0.45 0.03761410442022372 -0.0006132834336421635
  endloop
endfacet
facet normal 1 2.16665e-15 1.09647e-15
  outer loop
    vertex 0.4500000000000001 0.0231422891092681 -0.07121481976828584
    vertex 0.45 0.06063547361072938 -0.04404790171977577
    vertex 0.4500000000000001 0.002421752446892368 -0.03027041987168152
  endloop
endfacet
facet normal 1 0 0
  outer loop
    vertex 0.45 0.06063547346472593 0.04404790191653716
    vertex 0.45 0.02314228862646477 0.07121481992256307
    vertex 0.45 0.002528052706669848 0.02597743562377419
  endloop
endfacet
facet normal 1 -8.6129e-17 1.97397e-15
  outer loop
    vertex 0.45 0.002528052706669848 0.02597743562377419
    vertex 0.4500000000000001 0.002421752446892368 -0.03027041987168152
    vertex 0.45 0.03761410442022372 -0.0006132834336421635
  endloop
endfacet
facet normal 1 -1.2035e-15 7.51415e-16
  outer loop
    vertex 0.4500000000000001 -0.02314228849489503 -0.07121481996460546
    vertex 0.4500000000000001 0.002421752446892368 -0.03027041987168152
    vertex 0.45 -0.03348762649042997 -0.01390887582958894
  endloop
endfacet
facet normal 1 -2.59924e-15 4.99444e-16
  outer loop
    vertex 0.45 -0.06063547322667043 -0.04404790223735242
    vertex 0.4500000000000001 -0.02314228849489503 -0.07121481996460546
    vertex 0.45 -0.03348762649042997 -0.01390887582958894
  endloop
endfacet
facet normal 1 -1.33283e-16 1.51208e-15
  outer loop
    vertex 0.45 -0.03348762649042997 -0.01390887582958894
    vertex 0.45 0.002528052706669848 0.02597743562377419
    vertex 0.45 -0.03346725718213087 0.02280461145459337
  endloop
endfacet
facet normal 1 -2.05632e-17 1.25354e-15
  outer loop
    vertex 0.45 0.075 0
    vertex 0.45 0.06063547346472593 0.04404790191653716
    vertex 0.45 0.03761410442022372 -0.0006132834336421635
  endloop
endfacet
facet normal 1 2.07844e-17 -1.26702e-15
  outer loop
    vertex 0.45 0.06063547361072938 -0.04404790171977577
    vertex 0.45 0.075 0
    vertex 0.45 0.03761410442022372 -0.0006132834336421635
  endloop
endfacet
facet normal 1 0 0
  outer loop
    vertex 0.45 0.02314228862646477 0.07121481992256307
    vertex 0.45 -0.02314228922583053 0.07121481973103894
    vertex 0.45 0.002528052706669848 0.02597743562377419
  endloop
endfacet
facet normal 1 0 0
  outer loop
    vertex 0.4500000000000001 -0.02314228849489503 -0.07121481996460546
    vertex 0.4500000000000001 0.0231422891092681 -0.07121481976828584
    vertex 0.4500000000000001 0.002421752446892368 -0.03027041987168152
  endloop
endfacet
facet normal 1 0 0
  outer loop
    vertex 0.45 0.002528052706669848 0.02597743562377419
    vertex 0.45 -0.02314228922583053 0.07121481973103894
    vertex 0.45 -0.03346725718213087 0.02280461145459337
  endloop
endfacet
facet normal 1 0 0
  outer loop
    vertex 0.45 -0.02314228922583053 0.07121481973103894
    vertex 0.45 -0.06063547383889185 0.04404790141229284
    vertex 0.45 -0.03346725718213087 0.02280461145459337
  endloop
endfacet
facet normal 1 7.8519e-16 1.00419e-15
  outer loop
    vertex 0.45 -0.06063547383889185 0.04404790141229284
    vertex 0.45 -0.075 -6.432374056269588e-10
    vertex 0.45 -0.03346725718213087 0.02280461145459337
  endloop
endfacet
facet normal 1 -4.74046e-16 -1.41484e-15
  outer loop
    vertex 0.45 -0.075 -6.432374056269588e-10
    vertex 0.45 -0.06063547322667043 -0.04404790223735242
    vertex 0.45 -0.03348762649042997 -0.01390887582958894
  endloop
endfacet
facet normal 1 5.0651e-16 1.51173e-15
  outer loop
    vertex 0.45 -0.075 -6.432374056269588e-10
    vertex 0.45 -0.03348762649042997 -0.01390887582958894
    vertex 0.45 -0.03346725718213087 0.02280461145459337
  endloop
endfacet
facet normal 1 0 0
  outer loop
    vertex 0.9 -0.01110618796956987 0.04866607938364412
    vertex 0.9 -0.04502795379139922 0.02168749581879356
    vertex 0.9 4.185732077204216e-07 -8.958935775777681e-11
  endloop
endfacet
facet normal 1 2.77231e-15 6.32699e-16
  outer loop
    vertex 0.8999999999999999 0.03113560628097361 0.0390483165564786
    vertex 0.9 -0.01110618796956987 0.04866607938364412
    vertex 0.9 4.185732077204216e-07 -8.958935775777681e-11
  endloop
endfacet
facet normal 1 0 0
  outer loop
    vertex 0.9 -0.04502795379139922 0.02168749581879356
    vertex 0.9 -0.0450279534778204 -0.02168749648576784
    vertex 0.9 4.185732077204216e-07 -8.958935775777681e-11
  endloop
endfacet
facet normal 1 -5.09446e-24 2.8432e-15
  outer loop
    vertex 0.9 0.05 0
    vertex 0.8999999999999999 0.03113560628097361 0.0390483165564786
    vertex 0.9 4.185732077204216e-07 -8.958935775777681e-11
  endloop
endfacet
facet normal 1 -0 0
  outer loop
    vertex 0.9 -0.0450279534778204 -0.02168749648576784
    vertex 0.9 -0.01110618749522065 -0.04866607949368038
    vertex 0.9 4.185732077204216e-07 -8.958935775777681e-11
  endloop
endfacet
facet normal 1 -5.09446e-24 2.8432e-15
  outer loop
    vertex 0.9000000000000001 0.03113560646549056 -0.03904831640659358
    vertex 0.9 0.05 0
    vertex 0.9 4.185732077204216e-07 -8.958935775777681e-11
  endloop
endfacet
facet normal 1 -2.77231e-15 6.32699e-16
  outer loop
    vertex 0.9 -0.01110618749522065 -0.04866607949368038
    vertex 0.9000000000000001 0.03113560646549056 -0.03904831640659358
    vertex 0.9 4.185732077204216e-07 -8.958935775777681e-11
  endloop
endfacet
facet normal 1 0 0
  outer loop
    vertex 0.9 -0.01110618796956987 0.04866607938364412
    vertex 0.9 -0.04502795379139922 0.02168749581879356
    vertex 0.9 4.185732077204216e-07 -8.958935775777681e-11
  endloop
endfacet
facet normal 1 2.77231e-15 6.32699e-16
  outer loop
    vertex 0.8999999999999999 0.03113560628097361 0.0390483165564786
    vertex 0.9 -0.01110618796956987 0.04866607938364412
    vertex 0.9 4.185732077204216e-07 -8.958935775777681e-11
  endloop
endfacet
facet normal 1 0 0
  outer loop
    vertex 0.9 -0.04502795379139922 0.02168749581879356
    vertex 0.9 -0.0450279534778204 -0.02168749648576784
    vertex 0.9 4.185732077204216e-07 -8.958935775777681e-11
  endloop
endfacet
facet normal 1 -5.09446e-24 2.8432e-15
  outer loop
    vertex 0.9 0.05 0
    vertex 0.8999999999999999 0.03113560628097361 0.0390483165564786
    vertex 0.9 4.185732077204216e-07 -8.958935775777681e-11
  endloop
endfacet
facet normal 1 -0 0
  outer loop
    vertex 0.9 -0.0450279534778204 -0.02168749648576784
    vertex 0.9 -0.01110618749522065 -0.04866607949368038
    vertex 0.9 4.185732077204216e-07 -8.958935775777681e-11
  endloop
endfacet
facet normal 1 -5.09446e-24 2.8432e-15
  outer loop
    vertex 0.9000000000000001 0.03113560646549056 -0.03904831640659358
    vertex 0.9 0.05 0
    vertex 0.9 4.185732077204216e-07 -8.958935775777681e-11
  endloop
endfacet
facet normal 1 -2.77231e-15 6.32699e-16
  outer loop
    vertex 0.9 -0.01110618749522065 -0.04866607949368038
    vertex 0.9000000000000001 0.03113560646549056 -0.03904831640659358
    vertex 0.9 4.185732077204216e-07 -8.958935775777681e-11
  endloop
endfacet
facet normal 1 5.734e-23 -8.88178e-15
  outer loop
    vertex 1.3 -1.049135181257256e-10 0.025
    vertex 1.3 -0.02499999999999999 -2.151971908330833e-10
    vertex 1.3 6.312062955498204e-13 -5.379929748222656e-11
  endloop
endfacet
facet normal 1 -8.88178e-15 -8.88178e-15
  outer loop
    vertex 1.3 0.025 0
    vertex 1.3 -1.049135181257256e-10 0.025
    vertex 1.3 6.312062955498204e-13 -5.379929748222656e-11
  endloop
endfacet
facet normal 1 -8.88178e-15 8.88178e-15
  outer loop
    vertex 1.3 1.074383370879791e-10 -0.025
    vertex 1.3 0.025 0
    vertex 1.3 6.312062955498204e-13 -5.379929748222656e-11
  endloop
endfacet
facet normal 1 -5.73401e-23 8.88178e-15
  outer loop
    vertex 1.3 -0.02499999999999999 -2.151971908330833e-10
    vertex 1.3 1.074383370879791e-10 -0.025
    vertex 1.3 6.312062955498204e-13 -5.379929748222656e-11
  endloop
endfacet
facet normal 0 1 0
  outer loop
    vertex 0.4441379812852209 0 0.1384528274200204
    vertex 0.4 0 0.15
    vertex 0.4414887535012445 0 0.1683898958482811
  endloop
endfacet
facet normal 0 1 -0
  outer loop
    vertex 0.491682694518056 0 0.1386838352221663
    vertex 0.4888551967773784 0 0.1720970926848514
    vertex 0.5142688355470528 0 0.1548714990468966
  endloop
endfacet
facet normal 0 1 0
  outer loop
    vertex 0.4888551967773784 0 0.1720970926848514
    vertex 0.491682694518056 0 0.1386838352221663
    vertex 0.4664356433845186 0 0.1549427947616639
  endloop
endfacet
facet normal 0 1 -0
  outer loop
    vertex 0.4441379812852209 0 0.1384528274200204
    vertex 0.4414887535012445 0 0.1683898958482811
    vertex 0.4664356433845186 0 0.1549427947616639
  endloop
endfacet
facet normal 0 1 0
  outer loop
    vertex 0.5363678271200755 0 0.1704673352986893
    vertex 0.5391956336418369 0 0.1406284649580734
    vertex 0.5142688355470528 0 0.1548714990468966
  endloop
endfacet
facet normal -0 1 0
  outer loop
    vertex 0.4414887535012445 0 0.1683898958482811
    vertex 0.4888551967773784 0 0.1720970926848514
    vertex 0.4664356433845186 0 0.1549427947616639
  endloop
endfacet
facet normal 0 1 0
  outer loop
    vertex 0.4888551967773784 0 0.1720970926848514
    vertex 0.5363678271200755 0 0.1704673352986893
    vertex 0.5142688355470528 0 0.1548714990468966
  endloop
endfacet
facet normal 0 1 0
  outer loop
    vertex 0.5391956336418369 0 0.1406284649580734
    vertex 0.491682694518056 0 0.1386838352221663
    vertex 0.5142688355470528 0 0.1548714990468966
  endloop
endfacet
facet normal 0 1 0
  outer loop
    vertex 0.491682694518056 0 0.1386838352221663
    vertex 0.4441379812852209 0 0.1384528274200204
    vertex 0.4664356433845186 0 0.1549427947616639
  endloop
endfacet
facet normal 0 1 0
  outer loop
    vertex 0.5837008110111032 0 0.1659403700575724
    vertex 0.5391956336418369 0 0.1406284649580734
    vertex 0.5363678271200755 0 0.1704673352986893
  endloop
endfacet
facet normal 0 1 0
  outer loop
    vertex 0.6307870707754755 0 0.1593133893685007
    vertex 0.5866671751128609 0 0.1434188202634283
    vertex 0.5837008110111032 0 0.1659403700575724
  endloop
endfacet
facet normal 0 1 0
  outer loop
    vertex 0.5866671751128609 0 0.1434188202634283
    vertex 0.5391956336418369 0 0.1406284649580734
    vertex 0.5837008110111032 0 0.1659403700575724
  endloop
endfacet
facet normal 0 1 0
  outer loop
    vertex 0.6775549859019756 0 0.1507246862838691
    vertex 0.6341199607871115 0 0.1465149597064352
    vertex 0.6307870707754755 0 0.1593133893685007
  endloop
endfacet
facet normal 0 1 0
  outer loop
    vertex 0.6341199607871115 0 0.1465149597064352
    vertex 0.5866671751128609 0 0.1434188202634283
    vertex 0.6307870707754755 0 0.1593133893685007
  endloop
endfacet
facet normal 0 1 0
  outer loop
    vertex 0.4458165606983336 0.275 0.1481360550456601
    vertex 0.4 0.275 0.1596032116102306
    vertex 0.4435158517655263 0.275 0.1772644530843345
  endloop
endfacet
facet normal 0 1 -0
  outer loop
    vertex 0.4949623791735991 0.275 0.1483176690098143
    vertex 0.492561692897131 0.275 0.1797490571241707
    vertex 0.5185253416846428 0.275 0.1630461613289989
  endloop
endfacet
facet normal 7.30752e-17 1 -4.1547e-15
  outer loop
    vertex 0.5416157152945099 0.2750000000000001 0.1768133416865583
    vertex 0.544080821018794 0.275 0.1501345924367453
    vertex 0.5185253416846428 0.275 0.1630461613289989
  endloop
endfacet
facet normal 0 1 0
  outer loop
    vertex 0.492561692897131 0.275 0.1797490571241707
    vertex 0.4949623791735991 0.275 0.1483176690098143
    vertex 0.4690795642271621 0.275 0.163719713318065
  endloop
endfacet
facet normal 0 1 -0
  outer loop
    vertex 0.4458165606983336 0.275 0.1481360550456601
    vertex 0.4435158517655263 0.275 0.1772644530843345
    vertex 0.4690795642271621 0.275 0.163719713318065
  endloop
endfacet
facet normal -0 1 0
  outer loop
    vertex 0.4435158517655263 0.275 0.1772644530843345
    vertex 0.492561692897131 0.275 0.1797490571241707
    vertex 0.4690795642271621 0.275 0.163719713318065
  endloop
endfacet
facet normal -1.2477e-15 1 -1.93948e-15
  outer loop
    vertex 0.492561692897131 0.275 0.1797490571241707
    vertex 0.5416157152945099 0.2750000000000001 0.1768133416865583
    vertex 0.5185253416846428 0.275 0.1630461613289989
  endloop
endfacet
facet normal 1.20124e-15 1 -1.92176e-15
  outer loop
    vertex 0.544080821018794 0.275 0.1501345924367453
    vertex 0.4949623791735991 0.275 0.1483176690098143
    vertex 0.5185253416846428 0.275 0.1630461613289989
  endloop
endfacet
facet normal 0 1 0
  outer loop
    vertex 0.4949623791735991 0.275 0.1483176690098143
    vertex 0.4458165606983336 0.275 0.1481360550456601
    vertex 0.4690795642271621 0.275 0.163719713318065
  endloop
endfacet
facet normal 6.46891e-16 1 -4.10168e-15
  outer loop
    vertex 0.5904160520085826 0.275 0.1709760598522005
    vertex 0.544080821018794 0.275 0.1501345924367453
    vertex 0.5416157152945099 0.2750000000000001 0.1768133416865583
  endloop
endfacet
facet normal -1.69572e-15 1 -3.29774e-15
  outer loop
    vertex 0.6388939982042899 0.2750000000000001 0.1628814072004913
    vertex 0.5931654050422248 0.275 0.1527292048547188
    vertex 0.5904160520085826 0.275 0.1709760598522005
  endloop
endfacet
facet normal 1.59542e-16 1 -3.01819e-15
  outer loop
    vertex 0.5931654050422248 0.275 0.1527292048547188
    vertex 0.544080821018794 0.275 0.1501345924367453
    vertex 0.5904160520085826 0.275 0.1709760598522005
  endloop
endfacet
facet normal 0 1 0
  outer loop
    vertex 0.4435158517655263 0.275 0.1772644530843345
    vertex 0.4458165606983336 0.275 0.1481360550456601
    vertex 0.4 0.275 0.1596032116102306
  endloop
endfacet
facet normal 0 1 -0
  outer loop
    vertex 0.4949623791735991 0.275 0.1483176690098143
    vertex 0.492561692897131 0.275 0.1797490571241707
    vertex 0.5185253416846428 0.275 0.1630461613289989
  endloop
endfacet
facet normal 7.30752e-17 1 -4.1547e-15
  outer loop
    vertex 0.5416157152945099 0.2750000000000001 0.1768133416865583
    vertex 0.544080821018794 0.275 0.1501345924367453
    vertex 0.5185253416846428 0.275 0.1630461613289989
  endloop
endfacet
facet normal 0 1 0
  outer loop
    vertex 0.492561692897131 0.275 0.1797490571241707
    vertex 0.4949623791735991 0.275 0.1483176690098143
    vertex 0.4690795642271621 0.275 0.163719713318065
  endloop
endfacet
facet normal 0 1 -0
  outer loop
    vertex 0.4458165606983336 0.275 0.1481360550456601
    vertex 0.4435158517655263 0.275 0.1772644530843345
    vertex 0.4690795642271621 0.275 0.163719713318065
  endloop
endfacet
facet normal -0 1 0
  outer loop
    vertex 0.4435158517655263 0.275 0.1772644530843345
    vertex 0.492561692897131 0.275 0.1797490571241707
    vertex 0.4690795642271621 0.275 0.163719713318065
  endloop
endfacet
facet normal -1.2477e-15 1 -1.93948e-15
  outer loop
    vertex 0.492561692897131 0.275 0.1797490571241707
    vertex 0.5416157152945099 0.2750000000000001 0.1768133416865583
    vertex 0.5185253416846428 0.275 0.1630461613289989
  endloop
endfacet
facet normal 1.20124e-15 1 -1.92176e-15
  outer loop
    vertex 0.544080821018794 0.275 0.1501345924367453
    vertex 0.4949623791735991 0.275 0.1483176690098143
    vertex 0.5185253416846428 0.275 0.1630461613289989
  endloop
endfacet
facet normal 0 1 0
  outer loop
    vertex 0.4949623791735991 0.275 0.1483176690098143
    vertex 0.4458165606983336 0.275 0.1481360550456601
    vertex 0.4690795642271621 0.275 0.163719713318065
  endloop
endfacet
facet normal 6.46891e-16 1 -4.10168e-15
  outer loop
    vertex 0.5416157152945099 0.2750000000000001 0.1768133416865583
    vertex 0.5904160520085826 0.275 0.1709760598522005
    vertex 0.544080821018794 0.275 0.1501345924367453
  endloop
endfacet
facet normal -1.69572e-15 1 -3.29774e-15
  outer loop
    vertex 0.6388939982042899 0.2750000000000001 0.1628814072004913
    vertex 0.5931654050422248 0.275 0.1527292048547188
    vertex 0.5904160520085826 0.275 0.1709760598522005
  endloop
endfacet
facet normal 1.59542e-16 1 -3.01819e-15
  outer loop
    vertex 0.5904160520085826 0.275 0.1709760598522005
    vertex 0.5931654050422248 0.275 0.1527292048547188
    vertex 0.544080821018794 0.275 0.1501345924367453
  endloop
endfacet
facet normal -1.06616e-15 1 -4.10729e-15
  outer loop
    vertex 0.4431817405443642 0.55 0.1579973962015437
    vertex 0.4 0.55 0.1692064232204613
    vertex 0.441248700085885 0.5500000000000002 0.1855297368131077
  endloop
endfacet
facet normal -2.56416e-15 1 -3.91041e-15
  outer loop
    vertex 0.4896041689254702 0.5499999999999999 0.1577638312574692
    vertex 0.4875956779488712 0.55 0.1874722968797997
    vertex 0.5119820915525548 0.55 0.1714814737370735
  endloop
endfacet
facet normal -2.45304e-15 1 4.19709e-15
  outer loop
    vertex 0.5339057042515077 0.55 0.1842949993158793
    vertex 0.5360142184603984 0.5500000000000002 0.1590751317957516
    vertex 0.5119820915525548 0.55 0.1714814737370735
  endloop
endfacet
facet normal 2.39499e-15 1 -3.57514e-15
  outer loop
    vertex 0.4875956779488712 0.55 0.1874722968797997
    vertex 0.4896041689254702 0.5499999999999999 0.1577638312574692
    vertex 0.4652833844981625 0.55 0.1725252623619378
  endloop
endfacet
facet normal 2.53367e-15 1 -3.85454e-15
  outer loop
    vertex 0.4431817405443642 0.55 0.1579973962015437
    vertex 0.441248700085885 0.5500000000000002 0.1855297368131077
    vertex 0.4652833844981625 0.55 0.1725252623619378
  endloop
endfacet
facet normal 2.55534e-15 1 -3.8145e-15
  outer loop
    vertex 0.441248700085885 0.5500000000000002 0.1855297368131077
    vertex 0.4875956779488712 0.55 0.1874722968797997
    vertex 0.4652833844981625 0.55 0.1725252623619378
  endloop
endfacet
facet normal 0 1 0
  outer loop
    vertex 0.4875956779488712 0.55 0.1874722968797997
    vertex 0.5339057042515077 0.55 0.1842949993158793
    vertex 0.5119820915525548 0.55 0.1714814737370735
  endloop
endfacet
facet normal -4.77586e-15 1 -3.02414e-16
  outer loop
    vertex 0.5360142184603984 0.5500000000000002 0.1590751317957516
    vertex 0.4896041689254702 0.5499999999999999 0.1577638312574692
    vertex 0.5119820915525548 0.55 0.1714814737370735
  endloop
endfacet
facet normal 2.3734e-15 1 -3.61072e-15
  outer loop
    vertex 0.4896041689254702 0.5499999999999999 0.1577638312574692
    vertex 0.4431817405443642 0.55 0.1579973962015437
    vertex 0.4652833844981625 0.55 0.1725252623619378
  endloop
endfacet
facet normal 5.71718e-16 1 4.44997e-15
  outer loop
    vertex 0.5360142184603984 0.5500000000000002 0.1590751317957516
    vertex 0.5339057042515077 0.55 0.1842949993158793
    vertex 0.5799521923122596 0.55 0.1783791037100019
  endloop
endfacet
facet normal -3.65118e-15 1 -6.95076e-15
  outer loop
    vertex 0.6256755629427605 0.5500000000000002 0.1703336534302718
    vertex 0.5823986979323094 0.5499999999999999 0.1611212814969867
    vertex 0.5799521923122596 0.55 0.1783791037100019
  endloop
endfacet
facet normal 5.03932e-15 1 -5.71877e-15
  outer loop
    vertex 0.5823986979323094 0.5499999999999999 0.1611212814969867
    vertex 0.5360142184603984 0.5500000000000002 0.1590751317957516
    vertex 0.5799521923122596 0.55 0.1783791037100019
  endloop
endfacet
facet normal -1.06616e-15 1 -4.10729e-15
  outer loop
    vertex 0.441248700085885 0.5500000000000002 0.1855297368131077
    vertex 0.4431817405443642 0.55 0.1579973962015437
    vertex 0.4 0.55 0.1692064232204613
  endloop
endfacet
facet normal -2.56416e-15 1 -3.91041e-15
  outer loop
    vertex 0.4896041689254702 0.5499999999999999 0.1577638312574692
    vertex 0.4875956779488712 0.55 0.1874722968797997
    vertex 0.5119820915525548 0.55 0.1714814737370735
  endloop
endfacet
facet normal -2.45304e-15 1 4.19709e-15
  outer loop
    vertex 0.5339057042515077 0.55 0.1842949993158793
    vertex 0.5360142184603984 0.5500000000000002 0.1590751317957516
    vertex 0.5119820915525548 0.55 0.1714814737370735
  endloop
endfacet
facet normal 2.39499e-15 1 -3.57514e-15
  outer loop
    vertex 0.4875956779488712 0.55 0.1874722968797997
    vertex 0.4896041689254702 0.5499999999999999 0.1577638312574692
    vertex 0.4652833844981625 0.55 0.1725252623619378
  endloop
endfacet
facet normal 2.53367e-15 1 -3.85454e-15
  outer loop
    vertex 0.4431817405443642 0.55 0.1579973962015437
    vertex 0.441248700085885 0.5500000000000002 0.1855297368131077
    vertex 0.4652833844981625 0.55 0.1725252623619378
  endloop
endfacet
facet normal 2.55534e-15 1 -3.8145e-15
  outer loop
    vertex 0.441248700085885 0.5500000000000002 0.1855297368131077
    vertex 0.4875956779488712 0.55 0.1874722968797997
    vertex 0.4652833844981625 0.55 0.1725252623619378
  endloop
endfacet
facet normal 0 1 0
  outer loop
    vertex 0.4875956779488712 0.55 0.1874722968797997
    vertex 0.5339057042515077 0.55 0.1842949993158793
    vertex 0.5119820915525548 0.55 0.1714814737370735
  endloop
endfacet
facet normal -4.77586e-15 1 -3.02414e-16
  outer loop
    vertex 0.5360142184603984 0.5500000000000002 0.1590751317957516
    vertex 0.4896041689254702 0.5499999999999999 0.1577638312574692
    vertex 0.5119820915525548 0.55 0.1714814737370735
  endloop
endfacet
facet normal 2.3734e-15 1 -3.61072e-15
  outer loop
    vertex 0.4896041689254702 0.5499999999999999 0.1577638312574692
    vertex 0.4431817405443642 0.55 0.1579973962015437
    vertex 0.4652833844981625 0.55 0.1725252623619378
  endloop
endfacet
facet normal 5.71718e-16 1 4.44997e-15
  outer loop
    vertex 0.5799521923122596 0.55 0.1783791037100019
    vertex 0.5360142184603984 0.5500000000000002 0.1590751317957516
    vertex 0.5339057042515077 0.55 0.1842949993158793
  endloop
endfacet
facet normal -3.65118e-15 1 -6.95076e-15
  outer loop
    vertex 0.5823986979323094 0.5499999999999999 0.1611212814969867
    vertex 0.5799521923122596 0.55 0.1783791037100019
    vertex 0.6256755629427605 0.5500000000000002 0.1703336534302718
  endloop
endfacet
facet normal 5.03932e-15 1 -5.71877e-15
  outer loop
    vertex 0.5823986979323094 0.5499999999999999 0.1611212814969867
    vertex 0.5360142184603984 0.5500000000000002 0.1590751317957516
    vertex 0.5799521923122596 0.55 0.1783791037100019
  endloop
endfacet
facet normal 0 1 0
  outer loop
    vertex 0.4913365766293507 0.8250000000000001 0.1948924938750472
    vertex 0.4929916828996597 0.8250000000000001 0.1673861651260309
    vertex 0.4681393585983672 0.8250000000000001 0.1810690324988074
  endloop
endfacet
facet normal 2.32238e-15 1 -4.03416e-15
  outer loop
    vertex 0.4449210751680667 0.8250000000000001 0.1677027523604006
    vertex 0.4433080996963918 0.8250000000000002 0.1942947186337508
    vertex 0.4681393585983672 0.8250000000000001 0.1810690324988074
  endloop
endfacet
facet normal 2.3609e-15 1 -3.96184e-15
  outer loop
    vertex 0.4433080996963918 0.8250000000000002 0.1942947186337508
    vertex 0.4913365766293507 0.8250000000000001 0.1948924938750472
    vertex 0.4681393585983672 0.8250000000000001 0.1810690324988074
  endloop
endfacet
facet normal 0 1 0
  outer loop
    vertex 0.4929916828996597 0.8250000000000001 0.1673861651260309
    vertex 0.4449210751680667 0.8250000000000001 0.1677027523604006
    vertex 0.4681393585983672 0.8250000000000001 0.1810690324988074
  endloop
endfacet
facet normal -1.04801e-15 1 -4.2386e-15
  outer loop
    vertex 0.4433080996963918 0.8250000000000002 0.1942947186337508
    vertex 0.4449210751680667 0.8250000000000001 0.1677027523604006
    vertex 0.4 0.8250000000000001 0.1788096348306919
  endloop
endfacet
facet normal 0 1 0
  outer loop
    vertex 0.5391892171048467 0.8250000000000001 0.1903574864170291
    vertex 0.4929916828996597 0.8250000000000001 0.1673861651260309
    vertex 0.4913365766293507 0.8250000000000001 0.1948924938750472
  endloop
endfacet
facet normal 7.98112e-16 1 5.16618e-15
  outer loop
    vertex 0.5866971951363033 0.8250000000000001 0.1830180782630517
    vertex 0.5410526320962848 0.8250000000000002 0.1685793822517952
    vertex 0.5391892171048467 0.8250000000000001 0.1903574864170291
  endloop
endfacet
facet normal -2.43143e-15 1 4.88984e-15
  outer loop
    vertex 0.5410526320962848 0.8250000000000002 0.1685793822517952
    vertex 0.4929916828996597 0.8250000000000001 0.1673861651260309
    vertex 0.5391892171048467 0.8250000000000001 0.1903574864170291
  endloop
endfacet
facet normal 0 1 0
  outer loop
    vertex 0.633775926946065 0.8250000000000001 0.1732987541890789
    vertex 0.5890953405255119 0.8250000000000001 0.1703878776501731
    vertex 0.5866971951363033 0.8250000000000001 0.1830180782630517
  endloop
endfacet
facet normal 2.29451e-15 1 4.35667e-16
  outer loop
    vertex 0.5890953405255119 0.8250000000000001 0.1703878776501731
    vertex 0.5410526320962848 0.8250000000000002 0.1685793822517952
    vertex 0.5866971951363033 0.8250000000000001 0.1830180782630517
  endloop
endfacet
facet normal 0 1 0
  outer loop
    vertex 0.4913365766293507 0.8250000000000001 0.1948924938750472
    vertex 0.4929916828996597 0.8250000000000001 0.1673861651260309
    vertex 0.4681393585983672 0.8250000000000001 0.1810690324988074
  endloop
endfacet
facet normal 2.32238e-15 1 -4.03416e-15
  outer loop
    vertex 0.4449210751680667 0.8250000000000001 0.1677027523604006
    vertex 0.4433080996963918 0.8250000000000002 0.1942947186337508
    vertex 0.4681393585983672 0.8250000000000001 0.1810690324988074
  endloop
endfacet
facet normal 2.3609e-15 1 -3.96184e-15
  outer loop
    vertex 0.4433080996963918 0.8250000000000002 0.1942947186337508
    vertex 0.4913365766293507 0.8250000000000001 0.1948924938750472
    vertex 0.4681393585983672 0.8250000000000001 0.1810690324988074
  endloop
endfacet
facet normal 0 1 0
  outer loop
    vertex 0.4929916828996597 0.8250000000000001 0.1673861651260309
    vertex 0.4449210751680667 0.8250000000000001 0.1677027523604006
    vertex 0.4681393585983672 0.8250000000000001 0.1810690324988074
  endloop
endfacet
facet normal -1.04801e-15 1 -4.2386e-15
  outer loop
    vertex 0.4449210751680667 0.8250000000000001 0.1677027523604006
    vertex 0.4 0.8250000000000001 0.1788096348306919
    vertex 0.4433080996963918 0.8250000000000002 0.1942947186337508
  endloop
endfacet
facet normal 0 1 0
  outer loop
    vertex 0.5391892171048467 0.8250000000000001 0.1903574864170291
    vertex 0.4929916828996597 0.8250000000000001 0.1673861651260309
    vertex 0.4913365766293507 0.8250000000000001 0.1948924938750472
  endloop
endfacet
facet normal 7.98112e-16 1 5.16618e-15
  outer loop
    vertex 0.5410526320962848 0.8250000000000002 0.1685793822517952
    vertex 0.5391892171048467 0.8250000000000001 0.1903574864170291
    vertex 0.5866971951363033 0.8250000000000001 0.1830180782630517
  endloop
endfacet
facet normal -2.43143e-15 1 4.88984e-15
  outer loop
    vertex 0.5410526320962848 0.8250000000000002 0.1685793822517952
    vertex 0.4929916828996597 0.8250000000000001 0.1673861651260309
    vertex 0.5391892171048467 0.8250000000000001 0.1903574864170291
  endloop
endfacet
facet normal 0 1 0
  outer loop
    vertex 0.633775926946065 0.8250000000000001 0.1732987541890789
    vertex 0.5890953405255119 0.8250000000000001 0.1703878776501731
    vertex 0.5866971951363033 0.8250000000000001 0.1830180782630517
  endloop
endfacet
facet normal 2.29451e-15 1 4.35667e-16
  outer loop
    vertex 0.5890953405255119 0.8250000000000001 0.1703878776501731
    vertex 0.5410526320962848 0.8250000000000002 0.1685793822517952
    vertex 0.5866971951363033 0.8250000000000001 0.1830180782630517
  endloop
endfacet
facet normal 9.85959e-15 1 5.0696e-16
  outer loop
    vertex 0.4857733206743168 1.1 0.2027455513408622
    vertex 0.4871001540919646 1.1 0.1769407055940539
    vertex 0.4639093413384984 1.1 0.18997380308732
  endloop
endfacet
facet normal -4.98145e-15 1 -9.15915e-15
  outer loop
    vertex 0.442029350751317 1.1 0.1776309030631451
    vertex 0.440734539836395 1.1 0.202578052351219
    vertex 0.4639093413384984 1.1 0.18997380308732
  endloop
endfacet
facet normal 4.89659e-15 1 9.00312e-15
  outer loop
    vertex 0.440734539836395 1.1 0.202578052351219
    vertex 0.4857733206743168 1.1 0.2027455513408622
    vertex 0.4639093413384984 1.1 0.18997380308732
  endloop
endfacet
facet normal -2.68206e-16 1 -1.75142e-14
  outer loop
    vertex 0.4871001540919646 1.1 0.1769407055940539
    vertex 0.442029350751317 1.1 0.1776309030631451
    vertex 0.4639093413384984 1.1 0.18997380308732
  endloop
endfacet
facet normal 3.04026e-15 1 -8.7428e-15
  outer loop
    vertex 0.440734539836395 1.1 0.202578052351219
    vertex 0.442029350751317 1.1 0.1776309030631451
    vertex 0.4 1.1 0.1884128464409225
  endloop
endfacet
facet normal -4.97935e-15 1 -2.56028e-16
  outer loop
    vertex 0.4857733206743168 1.1 0.2027455513408622
    vertex 0.5306052282409672 1.1 0.1981017367693767
    vertex 0.4871001540919646 1.1 0.1769407055940539
  endloop
endfacet
facet normal 0 1 0
  outer loop
    vertex 0.5750910154753932 1.1 0.190831196879889
    vertex 0.5321742549051383 1.1 0.1776662548359825
    vertex 0.5306052282409672 1.1 0.1981017367693767
  endloop
endfacet
facet normal -4.92013e-15 1 -3.77765e-16
  outer loop
    vertex 0.5306052282409672 1.1 0.1981017367693767
    vertex 0.5321742549051383 1.1 0.1776662548359825
    vertex 0.4871001540919646 1.1 0.1769407055940539
  endloop
endfacet
facet normal 0 1 0
  outer loop
    vertex 0.6191548465072887 1.1 0.1813326416894174
    vertex 0.5772362869078838 1.1 0.1789688688444024
    vertex 0.5750910154753932 1.1 0.190831196879889
  endloop
endfacet
facet normal 0 1 0
  outer loop
    vertex 0.5772362869078838 1.1 0.1789688688444024
    vertex 0.5321742549051383 1.1 0.1776662548359825
    vertex 0.5750910154753932 1.1 0.190831196879889
  endloop
endfacet
facet normal -0 1 -0
  outer loop
    vertex 0.4441379812852209 0 0.1384528274200204
    vertex 0.4 -0 0.15
    vertex 0.4414887535012445 0 0.1683898958482811
  endloop
endfacet
facet normal 0 1 -0
  outer loop
    vertex 0.491682694518056 0 0.1386838352221663
    vertex 0.4888551967773784 0 0.1720970926848514
    vertex 0.5142688355470528 0 0.1548714990468966
  endloop
endfacet
facet normal 0 1 0
  outer loop
    vertex 0.4888551967773784 0 0.1720970926848514
    vertex 0.491682694518056 0 0.1386838352221663
    vertex 0.4664356433845186 0 0.154942794761664
  endloop
endfacet
facet normal 0 1 -0
  outer loop
    vertex 0.4441379812852209 0 0.1384528274200204
    vertex 0.4414887535012445 0 0.1683898958482811
    vertex 0.4664356433845186 0 0.154942794761664
  endloop
endfacet
facet normal 0 1 0
  outer loop
    vertex 0.5363678271200755 0 0.1704673352986893
    vertex 0.5391956336418369 0 0.1406284649580734
    vertex 0.5142688355470528 0 0.1548714990468966
  endloop
endfacet
facet normal -0 1 0
  outer loop
    vertex 0.4414887535012445 0 0.1683898958482811
    vertex 0.4888551967773784 0 0.1720970926848514
    vertex 0.4664356433845186 0 0.154942794761664
  endloop
endfacet
facet normal 0 1 0
  outer loop
    vertex 0.4888551967773784 0 0.1720970926848514
    vertex 0.5363678271200755 0 0.1704673352986893
    vertex 0.5142688355470528 0 0.1548714990468966
  endloop
endfacet
facet normal 0 1 0
  outer loop
    vertex 0.5391956336418369 0 0.1406284649580734
    vertex 0.491682694518056 0 0.1386838352221663
    vertex 0.5142688355470528 0 0.1548714990468966
  endloop
endfacet
facet normal 0 1 0
  outer loop
    vertex 0.491682694518056 0 0.1386838352221663
    vertex 0.4441379812852209 0 0.1384528274200204
    vertex 0.4664356433845186 0 0.154942794761664
  endloop
endfacet
facet normal 0 1 0
  outer loop
    vertex 0.5837008110111032 0 0.1659403700575724
    vertex 0.5391956336418369 0 0.1406284649580734
    vertex 0.5363678271200755 0 0.1704673352986893
  endloop
endfacet
facet normal 0 1 0
  outer loop
    vertex 0.6307870707754755 0 0.1593133893685007
    vertex 0.5866671751128609 0 0.1434188202634283
    vertex 0.5837008110111032 0 0.1659403700575724
  endloop
endfacet
facet normal 0 1 0
  outer loop
    vertex 0.5866671751128609 0 0.1434188202634283
    vertex 0.5391956336418369 0 0.1406284649580734
    vertex 0.5837008110111032 0 0.1659403700575724
  endloop
endfacet
facet normal 0 1 0
  outer loop
    vertex 0.6775549859019756 0 0.1507246862838691
    vertex 0.6341199607871115 0 0.1465149597064352
    vertex 0.6307870707754755 0 0.1593133893685007
  endloop
endfacet
facet normal 0 1 0
  outer loop
    vertex 0.6341199607871115 0 0.1465149597064352
    vertex 0.5866671751128609 0 0.1434188202634283
    vertex 0.6307870707754755 0 0.1593133893685007
  endloop
endfacet
facet normal 0 1 0
  outer loop
    vertex 0.4435158517655263 -0.275 0.1772644530843345
    vertex 0.4458165606983336 -0.275 0.1481360550456601
    vertex 0.4 -0.275 0.1596032116102306
  endloop
endfacet
facet normal 0 1 -0
  outer loop
    vertex 0.4949623791735991 -0.275 0.1483176690098143
    vertex 0.492561692897131 -0.275 0.1797490571241707
    vertex 0.5185253416846428 -0.275 0.1630461613289989
  endloop
endfacet
facet normal -7.30752e-17 1 4.1547e-15
  outer loop
    vertex 0.5416157152945099 -0.2750000000000001 0.1768133416865583
    vertex 0.544080821018794 -0.275 0.1501345924367453
    vertex 0.5185253416846428 -0.275 0.1630461613289989
  endloop
endfacet
facet normal 0 1 0
  outer loop
    vertex 0.492561692897131 -0.275 0.1797490571241707
    vertex 0.4949623791735991 -0.275 0.1483176690098143
    vertex 0.4690795642271621 -0.275 0.163719713318065
  endloop
endfacet
facet normal 0 1 -0
  outer loop
    vertex 0.4458165606983336 -0.275 0.1481360550456601
    vertex 0.4435158517655263 -0.275 0.1772644530843345
    vertex 0.4690795642271621 -0.275 0.163719713318065
  endloop
endfacet
facet normal -0 1 0
  outer loop
    vertex 0.4435158517655263 -0.275 0.1772644530843345
    vertex 0.492561692897131 -0.275 0.1797490571241707
    vertex 0.4690795642271621 -0.275 0.163719713318065
  endloop
endfacet
facet normal 1.2477e-15 1 1.93948e-15
  outer loop
    vertex 0.492561692897131 -0.275 0.1797490571241707
    vertex 0.5416157152945099 -0.2750000000000001 0.1768133416865583
    vertex 0.5185253416846428 -0.275 0.1630461613289989
  endloop
endfacet
facet normal -1.20124e-15 1 1.92176e-15
  outer loop
    vertex 0.544080821018794 -0.275 0.1501345924367453
    vertex 0.4949623791735991 -0.275 0.1483176690098143
    vertex 0.5185253416846428 -0.275 0.1630461613289989
  endloop
endfacet
facet normal 0 1 0
  outer loop
    vertex 0.4949623791735991 -0.275 0.1483176690098143
    vertex 0.4458165606983336 -0.275 0.1481360550456601
    vertex 0.4690795642271621 -0.275 0.163719713318065
  endloop
endfacet
facet normal -6.46891e-16 1 4.10168e-15
  outer loop
    vertex 0.544080821018794 -0.275 0.1501345924367453
    vertex 0.5416157152945099 -0.2750000000000001 0.1768133416865583
    vertex 0.5904160520085826 -0.275 0.1709760598522005
  endloop
endfacet
facet normal 1.69572e-15 1 3.29774e-15
  outer loop
    vertex 0.5931654050422248 -0.275 0.1527292048547188
    vertex 0.5904160520085826 -0.275 0.1709760598522005
    vertex 0.6388939982042899 -0.2750000000000001 0.1628814072004913
  endloop
endfacet
facet normal -1.59542e-16 1 3.01819e-15
  outer loop
    vertex 0.5931654050422248 -0.275 0.1527292048547188
    vertex 0.544080821018794 -0.275 0.1501345924367453
    vertex 0.5904160520085826 -0.275 0.1709760598522005
  endloop
endfacet
facet normal 0 1 0
  outer loop
    vertex 0.4435158517655263 -0.275 0.1772644530843345
    vertex 0.4458165606983336 -0.275 0.1481360550456601
    vertex 0.4 -0.275 0.1596032116102306
  endloop
endfacet
facet normal 0 1 -0
  outer loop
    vertex 0.4949623791735991 -0.275 0.1483176690098143
    vertex 0.492561692897131 -0.275 0.1797490571241707
    vertex 0.5185253416846428 -0.275 0.1630461613289989
  endloop
endfacet
facet normal -7.30752e-17 1 4.1547e-15
  outer loop
    vertex 0.5416157152945099 -0.2750000000000001 0.1768133416865583
    vertex 0.544080821018794 -0.275 0.1501345924367453
    vertex 0.5185253416846428 -0.275 0.1630461613289989
  endloop
endfacet
facet normal 0 1 0
  outer loop
    vertex 0.492561692897131 -0.275 0.1797490571241707
    vertex 0.4949623791735991 -0.275 0.1483176690098143
    vertex 0.4690795642271621 -0.275 0.163719713318065
  endloop
endfacet
facet normal 0 1 -0
  outer loop
    vertex 0.4458165606983336 -0.275 0.1481360550456601
    vertex 0.4435158517655263 -0.275 0.1772644530843345
    vertex 0.4690795642271621 -0.275 0.163719713318065
  endloop
endfacet
facet normal -0 1 0
  outer loop
    vertex 0.4435158517655263 -0.275 0.1772644530843345
    vertex 0.492561692897131 -0.275 0.1797490571241707
    vertex 0.4690795642271621 -0.275 0.163719713318065
  endloop
endfacet
facet normal 1.2477e-15 1 1.93948e-15
  outer loop
    vertex 0.492561692897131 -0.275 0.1797490571241707
    vertex 0.5416157152945099 -0.2750000000000001 0.1768133416865583
    vertex 0.5185253416846428 -0.275 0.1630461613289989
  endloop
endfacet
facet normal -1.20124e-15 1 1.92176e-15
  outer loop
    vertex 0.544080821018794 -0.275 0.1501345924367453
    vertex 0.4949623791735991 -0.275 0.1483176690098143
    vertex 0.5185253416846428 -0.275 0.1630461613289989
  endloop
endfacet
facet normal 0 1 0
  outer loop
    vertex 0.4949623791735991 -0.275 0.1483176690098143
    vertex 0.4458165606983336 -0.275 0.1481360550456601
    vertex 0.4690795642271621 -0.275 0.163719713318065
  endloop
endfacet
facet normal -6.46891e-16 1 4.10168e-15
  outer loop
    vertex 0.5904160520085826 -0.275 0.1709760598522005
    vertex 0.544080821018794 -0.275 0.1501345924367453
    vertex 0.5416157152945099 -0.2750000000000001 0.1768133416865583
  endloop
endfacet
facet normal 1.69572e-15 1 3.29774e-15
  outer loop
    vertex 0.6388939982042899 -0.2750000000000001 0.1628814072004913
    vertex 0.5931654050422248 -0.275 0.1527292048547188
    vertex 0.5904160520085826 -0.275 0.1709760598522005
  endloop
endfacet
facet normal -1.59542e-16 1 3.01819e-15
  outer loop
    vertex 0.5931654050422248 -0.275 0.1527292048547188
    vertex 0.544080821018794 -0.275 0.1501345924367453
    vertex 0.5904160520085826 -0.275 0.1709760598522005
  endloop
endfacet
facet normal 1.06616e-15 1 4.10729e-15
  outer loop
    vertex 0.4431817405443642 -0.55 0.1579973962015437
    vertex 0.4 -0.55 0.1692064232204613
    vertex 0.441248700085885 -0.5500000000000002 0.1855297368131077
  endloop
endfacet
facet normal 2.56416e-15 1 3.91041e-15
  outer loop
    vertex 0.4896041689254702 -0.5499999999999999 0.1577638312574692
    vertex 0.4875956779488712 -0.55 0.1874722968797997
    vertex 0.5119820915525548 -0.55 0.1714814737370735
  endloop
endfacet
facet normal 2.45304e-15 1 -4.19709e-15
  outer loop
    vertex 0.5339057042515077 -0.55 0.1842949993158793
    vertex 0.5360142184603984 -0.5500000000000002 0.1590751317957516
    vertex 0.5119820915525548 -0.55 0.1714814737370735
  endloop
endfacet
facet normal -2.39499e-15 1 3.57514e-15
  outer loop
    vertex 0.4875956779488712 -0.55 0.1874722968797997
    vertex 0.4896041689254702 -0.5499999999999999 0.1577638312574692
    vertex 0.4652833844981625 -0.55 0.1725252623619378
  endloop
endfacet
facet normal -2.53367e-15 1 3.85454e-15
  outer loop
    vertex 0.4431817405443642 -0.55 0.1579973962015437
    vertex 0.441248700085885 -0.5500000000000002 0.1855297368131077
    vertex 0.4652833844981625 -0.55 0.1725252623619378
  endloop
endfacet
facet normal -2.55534e-15 1 3.8145e-15
  outer loop
    vertex 0.441248700085885 -0.5500000000000002 0.1855297368131077
    vertex 0.4875956779488712 -0.55 0.1874722968797997
    vertex 0.4652833844981625 -0.55 0.1725252623619378
  endloop
endfacet
facet normal 0 1 0
  outer loop
    vertex 0.4875956779488712 -0.55 0.1874722968797997
    vertex 0.5339057042515077 -0.55 0.1842949993158793
    vertex 0.5119820915525548 -0.55 0.1714814737370735
  endloop
endfacet
facet normal 4.77586e-15 1 3.02414e-16
  outer loop
    vertex 0.5360142184603984 -0.5500000000000002 0.1590751317957516
    vertex 0.4896041689254702 -0.5499999999999999 0.1577638312574692
    vertex 0.5119820915525548 -0.55 0.1714814737370735
  endloop
endfacet
facet normal -2.3734e-15 1 3.61072e-15
  outer loop
    vertex 0.4896041689254702 -0.5499999999999999 0.1577638312574692
    vertex 0.4431817405443642 -0.55 0.1579973962015437
    vertex 0.4652833844981625 -0.55 0.1725252623619378
  endloop
endfacet
facet normal -5.71718e-16 1 -4.44997e-15
  outer loop
    vertex 0.5799521923122596 -0.55 0.1783791037100019
    vertex 0.5360142184603984 -0.5500000000000002 0.1590751317957516
    vertex 0.5339057042515077 -0.55 0.1842949993158793
  endloop
endfacet
facet normal 3.65118e-15 1 6.95076e-15
  outer loop
    vertex 0.6256755629427605 -0.5500000000000002 0.1703336534302718
    vertex 0.5823986979323094 -0.5499999999999999 0.1611212814969867
    vertex 0.5799521923122596 -0.55 0.1783791037100019
  endloop
endfacet
facet normal -5.03932e-15 1 5.71877e-15
  outer loop
    vertex 0.5823986979323094 -0.5499999999999999 0.1611212814969867
    vertex 0.5360142184603984 -0.5500000000000002 0.1590751317957516
    vertex 0.5799521923122596 -0.55 0.1783791037100019
  endloop
endfacet
facet normal 1.06616e-15 1 4.10729e-15
  outer loop
    vertex 0.441248700085885 -0.5500000000000002 0.1855297368131077
    vertex 0.4431817405443642 -0.55 0.1579973962015437
    vertex 0.4 -0.55 0.1692064232204613
  endloop
endfacet
facet normal 2.56416e-15 1 3.91041e-15
  outer loop
    vertex 0.4896041689254702 -0.5499999999999999 0.1577638312574692
    vertex 0.4875956779488712 -0.55 0.1874722968797997
    vertex 0.5119820915525548 -0.55 0.1714814737370735
  endloop
endfacet
facet normal 2.45304e-15 1 -4.19709e-15
  outer loop
    vertex 0.5339057042515077 -0.55 0.1842949993158793
    vertex 0.5360142184603984 -0.5500000000000002 0.1590751317957516
    vertex 0.5119820915525548 -0.55 0.1714814737370735
  endloop
endfacet
facet normal -2.39499e-15 1 3.57514e-15
  outer loop
    vertex 0.4875956779488712 -0.55 0.1874722968797997
    vertex 0.4896041689254702 -0.5499999999999999 0.1577638312574692
    vertex 0.4652833844981625 -0.55 0.1725252623619378
  endloop
endfacet
facet normal -2.53367e-15 1 3.85454e-15
  outer loop
    vertex 0.4431817405443642 -0.55 0.1579973962015437
    vertex 0.441248700085885 -0.5500000000000002 0.1855297368131077
    vertex 0.4652833844981625 -0.55 0.1725252623619378
  endloop
endfacet
facet normal -2.55534e-15 1 3.8145e-15
  outer loop
    vertex 0.441248700085885 -0.5500000000000002 0.1855297368131077
    vertex 0.4875956779488712 -0.55 0.1874722968797997
    vertex 0.4652833844981625 -0.55 0.1725252623619378
  endloop
endfacet
facet normal 0 1 0
  outer loop
    vertex 0.4875956779488712 -0.55 0.1874722968797997
    vertex 0.5339057042515077 -0.55 0.1842949993158793
    vertex 0.5119820915525548 -0.55 0.1714814737370735
  endloop
endfacet
facet normal 4.77586e-15 1 3.02414e-16
  outer loop
    vertex 0.5360142184603984 -0.5500000000000002 0.1590751317957516
    vertex 0.4896041689254702 -0.5499999999999999 0.1577638312574692
    vertex 0.5119820915525548 -0.55 0.1714814737370735
  endloop
endfacet
facet normal -2.3734e-15 1 3.61072e-15
  outer loop
    vertex 0.4896041689254702 -0.5499999999999999 0.1577638312574692
    vertex 0.4431817405443642 -0.55 0.1579973962015437
    vertex 0.4652833844981625 -0.55 0.1725252623619378
  endloop
endfacet
facet normal -5.71718e-16 1 -4.44997e-15
  outer loop
    vertex 0.5799521923122596 -0.55 0.1783791037100019
    vertex 0.5360142184603984 -0.5500000000000002 0.1590751317957516
    vertex 0.5339057042515077 -0.55 0.1842949993158793
  endloop
endfacet
facet normal 3.65118e-15 1 6.95076e-15
  outer loop
    vertex 0.6256755629427605 -0.5500000000000002 0.1703336534302718
    vertex 0.5823986979323094 -0.5499999999999999 0.1611212814969867
    vertex 0.5799521923122596 -0.55 0.1783791037100019
  endloop
endfacet
facet normal -5.03932e-15 1 5.71877e-15
  outer loop
    vertex 0.5823986979323094 -0.5499999999999999 0.1611212814969867
    vertex 0.5360142184603984 -0.5500000000000002 0.1590751317957516
    vertex 0.5799521923122596 -0.55 0.1783791037100019
  endloop
endfacet
facet normal 0 1 0
  outer loop
    vertex 0.4913365766293507 -0.8250000000000001 0.1948924938750472
    vertex 0.4929916828996597 -0.8250000000000001 0.1673861651260309
    vertex 0.4681393585983672 -0.8250000000000001 0.1810690324988074
  endloop
endfacet
facet normal -2.32238e-15 1 4.03416e-15
  outer loop
    vertex 0.4449210751680667 -0.8250000000000001 0.1677027523604006
    vertex 0.4433080996963918 -0.8250000000000002 0.1942947186337508
    vertex 0.4681393585983672 -0.8250000000000001 0.1810690324988074
  endloop
endfacet
facet normal -2.3609e-15 1 3.96184e-15
  outer loop
    vertex 0.4433080996963918 -0.8250000000000002 0.1942947186337508
    vertex 0.4913365766293507 -0.8250000000000001 0.1948924938750472
    vertex 0.4681393585983672 -0.8250000000000001 0.1810690324988074
  endloop
endfacet
facet normal 0 1 0
  outer loop
    vertex 0.4929916828996597 -0.8250000000000001 0.1673861651260309
    vertex 0.4449210751680667 -0.8250000000000001 0.1677027523604006
    vertex 0.4681393585983672 -0.8250000000000001 0.1810690324988074
  endloop
endfacet
facet normal 1.04801e-15 1 4.2386e-15
  outer loop
    vertex 0.4433080996963918 -0.8250000000000002 0.1942947186337508
    vertex 0.4449210751680667 -0.8250000000000001 0.1677027523604006
    vertex 0.4 -0.8250000000000001 0.1788096348306919
  endloop
endfacet
facet normal 0 1 0
  outer loop
    vertex 0.5391892171048467 -0.8250000000000001 0.1903574864170291
    vertex 0.4929916828996597 -0.8250000000000001 0.1673861651260309
    vertex 0.4913365766293507 -0.8250000000000001 0.1948924938750472
  endloop
endfacet
facet normal -7.98112e-16 1 -5.16618e-15
  outer loop
    vertex 0.5866971951363033 -0.8250000000000001 0.1830180782630517
    vertex 0.5410526320962848 -0.8250000000000002 0.1685793822517952
    vertex 0.5391892171048467 -0.8250000000000001 0.1903574864170291
  endloop
endfacet
facet normal 2.43143e-15 1 -4.88984e-15
  outer loop
    vertex 0.5410526320962848 -0.8250000000000002 0.1685793822517952
    vertex 0.4929916828996597 -0.8250000000000001 0.1673861651260309
    vertex 0.5391892171048467 -0.8250000000000001 0.1903574864170291
  endloop
endfacet
facet normal 0 1 0
  outer loop
    vertex 0.633775926946065 -0.8250000000000001 0.1732987541890789
    vertex 0.5890953405255119 -0.8250000000000001 0.1703878776501731
    vertex 0.5866971951363033 -0.8250000000000001 0.1830180782630517
  endloop
endfacet
facet normal -2.29451e-15 1 -4.35667e-16
  outer loop
    vertex 0.5890953405255119 -0.8250000000000001 0.1703878776501731
    vertex 0.5410526320962848 -0.8250000000000002 0.1685793822517952
    vertex 0.5866971951363033 -0.8250000000000001 0.1830180782630517
  endloop
endfacet
facet normal 0 1 0
  outer loop
    vertex 0.4913365766293507 -0.8250000000000001 0.1948924938750472
    vertex 0.4929916828996597 -0.8250000000000001 0.1673861651260309
    vertex 0.4681393585983672 -0.8250000000000001 0.1810690324988074
  endloop
endfacet
facet normal -2.32238e-15 1 4.03416e-15
  outer loop
    vertex 0.4449210751680667 -0.8250000000000001 0.1677027523604006
    vertex 0.4433080996963918 -0.8250000000000002 0.1942947186337508
    vertex 0.4681393585983672 -0.8250000000000001 0.1810690324988074
  endloop
endfacet
facet normal -2.3609e-15 1 3.96184e-15
  outer loop
    vertex 0.4433080996963918 -0.8250000000000002 0.1942947186337508
    vertex 0.4913365766293507 -0.8250000000000001 0.1948924938750472
    vertex 0.4681393585983672 -0.8250000000000001 0.1810690324988074
  endloop
endfacet
facet normal 0 1 0
  outer loop
    vertex 0.4929916828996597 -0.8250000000000001 0.1673861651260309
    vertex 0.4449210751680667 -0.8250000000000001 0.1677027523604006
    vertex 0.4681393585983672 -0.8250000000000001 0.1810690324988074
  endloop
endfacet
facet normal 1.04801e-15 1 4.2386e-15
  outer loop
    vertex 0.4449210751680667 -0.8250000000000001 0.1677027523604006
    vertex 0.4 -0.8250000000000001 0.1788096348306919
    vertex 0.4433080996963918 -0.8250000000000002 0.1942947186337508
  endloop
endfacet
facet normal 0 1 0
  outer loop
    vertex 0.5391892171048467 -0.8250000000000001 0.1903574864170291
    vertex 0.4929916828996597 -0.8250000000000001 0.1673861651260309
    vertex 0.4913365766293507 -0.8250000000000001 0.1948924938750472
  endloop
endfacet
facet normal -7.98112e-16 1 -5.16618e-15
  outer loop
    vertex 0.5866971951363033 -0.8250000000000001 0.1830180782630517
    vertex 0.5410526320962848 -0.8250000000000002 0.1685793822517952
    vertex 0.5391892171048467 -0.8250000000000001 0.1903574864170291
  endloop
endfacet
facet normal 2.43143e-15 1 -4.88984e-15
  outer loop
    vertex 0.5410526320962848 -0.8250000000000002 0.1685793822517952
    vertex 0.4929916828996597 -0.8250000000000001 0.1673861651260309
    vertex 0.5391892171048467 -0.8250000000000001 0.1903574864170291
  endloop
endfacet
facet normal 0 1 0
  outer loop
    vertex 0.633775926946065 -0.8250000000000001 0.1732987541890789
    vertex 0.5890953405255119 -0.8250000000000001 0.1703878776501731
    vertex 0.5866971951363033 -0.8250000000000001 0.1830180782630517
  endloop
endfacet
facet normal -2.29451e-15 1 -4.35667e-16
  outer loop
    vertex 0.5890953405255119 -0.8250000000000001 0.1703878776501731
    vertex 0.5410526320962848 -0.8250000000000002 0.1685793822517952
    vertex 0.5866971951363033 -0.8250000000000001 0.1830180782630517
  endloop
endfacet
facet normal -9.85959e-15 1 -5.0696e-16
  outer loop
    vertex 0.4857733206743168 -1.1 0.2027455513408622
    vertex 0.4871001540919646 -1.1 0.1769407055940539
    vertex 0.4639093413384984 -1.1 0.18997380308732
  endloop
endfacet
facet normal 4.98145e-15 1 9.15915e-15
  outer loop
    vertex 0.442029350751317 -1.1 0.1776309030631451
    vertex 0.440734539836395 -1.1 0.202578052351219
    vertex 0.4639093413384984 -1.1 0.18997380308732
  endloop
endfacet
facet normal -4.89659e-15 1 -9.00312e-15
  outer loop
    vertex 0.440734539836395 -1.1 0.202578052351219
    vertex 0.4857733206743168 -1.1 0.2027455513408622
    vertex 0.4639093413384984 -1.1 0.18997380308732
  endloop
endfacet
facet normal 2.68206e-16 1 1.75142e-14
  outer loop
    vertex 0.4871001540919646 -1.1 0.1769407055940539
    vertex 0.442029350751317 -1.1 0.1776309030631451
    vertex 0.4639093413384984 -1.1 0.18997380308732
  endloop
endfacet
facet normal -3.04026e-15 1 8.7428e-15
  outer loop
    vertex 0.440734539836395 -1.1 0.202578052351219
    vertex 0.442029350751317 -1.1 0.1776309030631451
    vertex 0.4 -1.1 0.1884128464409225
  endloop
endfacet
facet normal 4.97935e-15 1 2.56028e-16
  outer loop
    vertex 0.5306052282409672 -1.1 0.1981017367693767
    vertex 0.4871001540919646 -1.1 0.1769407055940539
    vertex 0.4857733206743168 -1.1 0.2027455513408622
  endloop
endfacet
facet normal 0 1 -0
  outer loop
    vertex 0.5321742549051383 -1.1 0.1776662548359825
    vertex 0.5306052282409672 -1.1 0.1981017367693767
    vertex 0.5750910154753932 -1.1 0.190831196879889
  endloop
endfacet
facet normal 4.92013e-15 1 3.77765e-16
  outer loop
    vertex 0.5321742549051383 -1.1 0.1776662548359825
    vertex 0.4871001540919646 -1.1 0.1769407055940539
    vertex 0.5306052282409672 -1.1 0.1981017367693767
  endloop
endfacet
facet normal 0 1 0
  outer loop
    vertex 0.6191548465072887 -1.1 0.1813326416894174
    vertex 0.5772362869078838 -1.1 0.1789688688444024
    vertex 0.5750910154753932 -1.1 0.190831196879889
  endloop
endfacet
facet normal 0 1 0
  outer loop
    vertex 0.5772362869078838 -1.1 0.1789688688444024
    vertex 0.5321742549051383 -1.1 0.1776662548359825
    vertex 0.5750910154753932 -1.1 0.190831196879889
  endloop
endfacet
facet normal 0 1 0
  outer loop
    vertex 1.192906420190859 0 0.03936548614344796
    vertex 1.192906420462641 0 0.06063451386522564
    vertex 1.215619882781382 0 0.04999999971409432
  endloop
endfacet
facet normal 0 1 0
  outer loop
    vertex 1.238787379463137 0 0.05960527898590053
    vertex 1.238787379027465 0 0.04039472098710008
    vertex 1.215619882781382 0 0.04999999971409432
  endloop
endfacet
facet normal 0 1 0
  outer loop
    vertex 1.192906420462641 0 0.06063451386522564
    vertex 1.238787379463137 0 0.05960527898590053
    vertex 1.215619882781382 0 0.04999999971409432
  endloop
endfacet
facet normal 0 1 0
  outer loop
    vertex 1.238787379027465 0 0.04039472098710008
    vertex 1.192906420190859 0 0.03936548614344796
    vertex 1.215619882781382 0 0.04999999971409432
  endloop
endfacet
facet normal 0 1 0
  outer loop
    vertex 1.192906420462641 0 0.06063451386522564
    vertex 1.192906420190859 0 0.03936548614344796
    vertex 1.15 0 0.05
  endloop
endfacet
facet normal 0 1 -0
  outer loop
    vertex 1.284529540699916 0 0.04426292122453646
    vertex 1.238787379463137 0 0.05960527898590053
    vertex 1.284529541349158 0 0.05573707870796424
  endloop
endfacet
facet normal 0 1 0
  outer loop
    vertex 1.284529540699916 0 0.04426292122453646
    vertex 1.238787379027465 0 0.04039472098710008
    vertex 1.238787379463137 0 0.05960527898590053
  endloop
endfacet
facet normal 0 1 0
  outer loop
    vertex 1.329972502975085 0 0.05015706619228209
    vertex 1.284529540699916 0 0.04426292122453646
    vertex 1.284529541349158 0 0.05573707870796424
  endloop
endfacet
facet normal 6.13078e-16 1 -3.3099e-15
  outer loop
    vertex 1.195272502574032 0.3499999999999999 0.04161436568813014
    vertex 1.15 0.35 0.05
    vertex 1.195272502873143 0.35 0.0583856343087507
  endloop
endfacet
facet normal 0 1 0
  outer loop
    vertex 1.195272502873143 0.35 0.0583856343087507
    vertex 1.242788628261276 0.35 0.05562278523805578
    vertex 1.242788627865755 0.35 0.04437721472545833
  endloop
endfacet
facet normal -9.75804e-16 1 -3.3099e-15
  outer loop
    vertex 1.195272502574032 0.3499999999999999 0.04161436568813014
    vertex 1.195272502873143 0.35 0.0583856343087507
    vertex 1.242788627865755 0.35 0.04437721472545833
  endloop
endfacet
facet normal 0 1 0
  outer loop
    vertex 1.242788628261276 0.35 0.05562278523805578
    vertex 1.28997861355962 0.35 0.0501221627880816
    vertex 1.242788627865755 0.35 0.04437721472545833
  endloop
endfacet
facet normal 0 1 0
  outer loop
    vertex 1.192906420190859 0 0.03936548614344796
    vertex 1.192906420462641 0 0.06063451386522564
    vertex 1.215619882781382 0 0.04999999971409432
  endloop
endfacet
facet normal 0 1 0
  outer loop
    vertex 1.238787379463137 0 0.05960527898590053
    vertex 1.238787379027465 0 0.04039472098710008
    vertex 1.215619882781382 0 0.04999999971409432
  endloop
endfacet
facet normal 0 1 0
  outer loop
    vertex 1.192906420462641 0 0.06063451386522564
    vertex 1.238787379463137 0 0.05960527898590053
    vertex 1.215619882781382 0 0.04999999971409432
  endloop
endfacet
facet normal 0 1 0
  outer loop
    vertex 1.238787379027465 0 0.04039472098710008
    vertex 1.192906420190859 0 0.03936548614344796
    vertex 1.215619882781382 0 0.04999999971409432
  endloop
endfacet
facet normal 0 1 -0
  outer loop
    vertex 1.192906420190859 0 0.03936548614344796
    vertex 1.15 0 0.05
    vertex 1.192906420462641 0 0.06063451386522564
  endloop
endfacet
facet normal 0 1 0
  outer loop
    vertex 1.284529541349158 0 0.05573707870796424
    vertex 1.284529540699916 0 0.04426292122453646
    vertex 1.238787379463137 0 0.05960527898590053
  endloop
endfacet
facet normal 0 1 0
  outer loop
    vertex 1.284529540699916 0 0.04426292122453646
    vertex 1.238787379027465 0 0.04039472098710008
    vertex 1.238787379463137 0 0.05960527898590053
  endloop
endfacet
facet normal 0 1 0
  outer loop
    vertex 1.329972502975085 0 0.05015706619228209
    vertex 1.284529540699916 0 0.04426292122453646
    vertex 1.284529541349158 0 0.05573707870796424
  endloop
endfacet
facet normal -6.13078e-16 1 3.3099e-15
  outer loop
    vertex 1.195272502873143 -0.35 0.0583856343087507
    vertex 1.195272502574032 -0.3499999999999999 0.04161436568813014
    vertex 1.15 -0.35 0.05
  endloop
endfacet
facet normal 0 1 0
  outer loop
    vertex 1.242788628261276 -0.35 0.05562278523805578
    vertex 1.242788627865755 -0.35 0.04437721472545833
    vertex 1.195272502873143 -0.35 0.0583856343087507
  endloop
endfacet
facet normal 9.75804e-16 1 3.3099e-15
  outer loop
    vertex 1.242788627865755 -0.35 0.04437721472545833
    vertex 1.195272502574032 -0.3499999999999999 0.04161436568813014
    vertex 1.195272502873143 -0.35 0.0583856343087507
  endloop
endfacet
facet normal 0 1 0
  outer loop
    vertex 1.242788627865755 -0.35 0.04437721472545833
    vertex 1.242788628261276 -0.35 0.05562278523805578
    vertex 1.28997861355962 -0.35 0.0501221627880816
  endloop
endfacet
facet normal 0 1 0
  outer loop
    vertex 1.237334210064567 0 0.06129211818992453
    vertex 1.237334209515713 0 0.03870788178382049
    vertex 1.214599220359151 0 0.05000000053939033
  endloop
endfacet
facet normal 0 1 0
  outer loop
    vertex 1.1920109472665 0 0.03841718415559396
    vertex 1.192010947579186 0 0.0615828158602372
    vertex 1.214599220359151 0 0.05000000053939033
  endloop
endfacet
facet normal 0 1 0
  outer loop
    vertex 1.237334209515713 0 0.03870788178382049
    vertex 1.237334210064567 0 0.06129211818992453
    vertex 1.259248225349767 0 0.04999999945430694
  endloop
endfacet
facet normal 0 1 0
  outer loop
    vertex 1.282555181098032 0 0.05803255053678509
    vertex 1.282555180341326 0 0.04196744939341056
    vertex 1.259248225349767 0 0.04999999945430694
  endloop
endfacet
facet normal 0 1 0
  outer loop
    vertex 1.192010947579186 0 0.0615828158602372
    vertex 1.237334210064567 0 0.06129211818992453
    vertex 1.214599220359151 0 0.05000000053939033
  endloop
endfacet
facet normal 0 1 0
  outer loop
    vertex 1.237334210064567 0 0.06129211818992453
    vertex 1.282555181098032 0 0.05803255053678509
    vertex 1.259248225349767 0 0.04999999945430694
  endloop
endfacet
facet normal 0 1 0
  outer loop
    vertex 1.282555180341326 0 0.04196744939341056
    vertex 1.237334209515713 0 0.03870788178382049
    vertex 1.259248225349767 0 0.04999999945430694
  endloop
endfacet
facet normal 0 1 0
  outer loop
    vertex 1.237334209515713 0 0.03870788178382049
    vertex 1.1920109472665 0 0.03841718415559396
    vertex 1.214599220359151 0 0.05000000053939033
  endloop
endfacet
facet normal 0 1 0
  outer loop
    vertex 1.192010947579186 0 0.0615828158602372
    vertex 1.1920109472665 0 0.03841718415559396
    vertex 1.15 0 0.05
  endloop
endfacet
facet normal 0 1 0
  outer loop
    vertex 1.327635731240569 0 0.05318722286173425
    vertex 1.282555180341326 0 0.04196744939341056
    vertex 1.282555181098032 0 0.05803255053678509
  endloop
endfacet
facet normal 0 1 0
  outer loop
    vertex 1.196964236329593 0 0.3070014334111119
    vertex 1.196964235965515 0 0.2929985665763157
    vertex 1.15 0 0.3
  endloop
endfacet
facet normal 0 1 0
  outer loop
    vertex 1.245772730503045 0 0.3031731319073174
    vertex 1.196964235965515 0 0.2929985665763157
    vertex 1.196964236329593 0 0.3070014334111119
  endloop
endfacet
endsolid Created by Gmsh
